<svg width="1920" height="708" viewBox="0 0 1920 708" fill="none" xmlns="http://www.w3.org/2000/svg">
<path d="M627.474 455.423C622.347 455.324 617.739 454.796 613.673 453.835C573.951 444.476 539.112 420.39 507.16 380.209C478.611 344.305 456.063 299.749 437.774 260.898C395.994 172.155 345.624 87.6042 260.693 69.9512C218.923 61.2707 172.497 75.08 136.504 106.894C100.516 138.714 81.1099 183.09 84.5996 225.611L84.2422 225.64C82.4396 203.672 86.4439 181.705 96.1465 160.348C105.205 140.395 119.085 121.821 136.275 106.625C153.465 91.4285 173.606 79.9397 194.518 73.3958C216.902 66.3909 239.196 65.1147 260.777 69.601C300.754 77.9103 335.889 101.415 368.202 141.455C397.278 177.487 419.858 221.978 438.108 260.746C476.886 343.109 525.638 432.722 613.762 453.485C635.001 458.49 670.857 451.629 720.347 433.102C763.044 417.115 817.37 391.86 881.814 358.047C1000.32 295.86 1130.87 216.826 1235.77 153.325C1276.53 128.644 1311.75 107.327 1340.06 90.7654C1359.46 79.4202 1380.19 67.6777 1401.64 59.7778C1425.77 50.8897 1447.3 48.2222 1467.47 51.6207C1498.28 56.8058 1524.66 75.1399 1548.1 107.662C1568.67 136.197 1584.16 171.97 1597.07 203.258C1622.85 265.767 1666.24 350.585 1745.15 365.461C1777.99 371.653 1812.45 364.128 1842.85 357.487L2267.78 264.705L2267.85 265.053L1842.92 357.836C1819.51 362.949 1793.68 368.588 1768.03 368.091C1760.34 367.942 1752.67 367.243 1745.08 365.811C1727.2 362.436 1710.09 355.233 1694.24 344.388C1679.99 334.639 1666.31 321.66 1653.61 305.803C1633.31 280.469 1614.71 246.971 1596.73 203.39C1567.66 132.889 1533.72 63.1308 1467.4 51.9662C1424.15 44.6845 1382.57 66.3064 1340.24 91.0696C1311.93 107.631 1276.72 128.948 1235.95 153.629C1131.05 217.136 1000.49 296.169 881.976 358.361C817.522 392.184 763.18 417.444 720.468 433.436C696.476 442.418 675.512 448.726 658.162 452.183C646.488 454.512 636.225 455.593 627.474 455.423Z" fill="url(#paint0_linear_1_9)"/>
<path d="M616.248 446.743C609.954 446.621 604.246 445.965 599.162 444.729C557.518 434.782 520.556 408.983 486.158 365.854C460.666 333.996 440.069 297.15 421.605 262.084C381.268 185.196 330.96 101.906 244.043 86.7894C203.161 79.625 157.621 93.9817 122.221 125.191C86.8424 156.385 66.9057 199.701 68.8934 241.065L68.4596 241.088C67.4311 219.696 71.9342 198.299 81.835 177.496C91.1034 158.022 104.971 139.82 121.937 124.864C138.908 109.898 158.713 98.4179 179.206 91.6619C201.115 84.4389 222.955 82.6542 244.117 86.3626C283.328 93.1836 318.166 114.399 350.617 151.215C379.591 184.088 402.953 225.607 421.986 261.882C440.441 296.933 461.028 333.753 486.494 365.585C520.828 408.636 557.715 434.388 599.262 444.308C679.03 463.686 914.663 340.569 1111.03 231.135C1143.8 212.891 1174.79 195.474 1204.74 178.628C1248.53 154.006 1286.36 132.744 1316.82 116.194C1338.16 104.606 1357.48 94.4318 1377.92 87.272C1401.84 78.8949 1423.12 76.3652 1442.98 79.5437C1473.37 84.4096 1499.74 101.612 1523.6 132.138C1544.13 158.394 1559.86 190.715 1574.23 221.578C1601.39 279.902 1646.36 358.857 1723.12 371.096C1754.82 376.145 1787.83 369.004 1818.91 361.261C1851.49 353.143 1884.2 344.064 1915.84 335.291C1934.01 330.249 1952.8 325.04 1971.36 320.062C2016.87 307.861 2070.83 293.871 2126 282.612C2167.91 274.058 2211.9 267.191 2256.75 262.207L2256.8 262.641C2211.96 267.626 2167.98 274.488 2126.09 283.037C2070.94 294.297 2016.98 308.287 1971.48 320.482C1952.91 325.456 1934.13 330.669 1915.96 335.711C1884.32 344.49 1851.6 353.568 1819.02 361.686C1787.89 369.444 1754.84 376.594 1723.05 371.528C1705.48 368.725 1688.59 362.301 1672.84 352.432C1658.7 343.567 1645.03 331.638 1632.23 316.972C1611.69 293.464 1593.14 263.214 1573.84 221.764C1549.65 169.773 1513.08 91.2097 1442.92 79.981C1397.74 72.7486 1352.99 97.0521 1317.04 116.581C1286.57 133.131 1248.76 154.392 1204.96 179.015C1175 195.861 1144.02 213.278 1111.25 231.522C927.301 334.018 708.899 448.532 616.248 446.743Z" fill="url(#paint1_linear_1_9)"/>
<path d="M605.363 438.064C597.586 437.913 590.673 437.096 584.65 435.618C543.672 425.541 506.795 400.896 471.904 360.281C445.226 329.42 423.602 294.017 405.431 263.259C363.727 192.178 312.137 115.363 227.392 103.612C186.809 97.8813 143.28 112.399 107.96 143.452C73.1842 174.025 52.707 216.291 53.1876 256.505L52.6726 256.51C52.4232 235.689 57.4251 214.863 67.5293 194.615C77.0128 175.614 90.8734 157.788 107.621 143.063C124.373 128.337 143.836 116.866 163.91 109.898C185.344 102.457 206.725 100.169 227.464 103.099C312.442 114.885 364.111 191.813 405.874 262.998C424.035 293.735 445.645 329.112 472.298 359.942C507.114 400.474 543.906 425.061 584.777 435.116C604.495 439.964 633.819 437.636 671.928 428.188C705.882 419.77 747.889 405.427 796.793 385.553C896.278 345.123 1011.43 287.015 1089.4 246.822C1119.54 231.315 1148.34 216.385 1176.19 201.945C1221.96 178.212 1261.5 157.718 1293.6 141.613L1293.76 141.529C1313.26 131.746 1333.42 121.629 1354.29 114.717C1377.98 106.876 1398.98 104.499 1418.51 107.457C1448.47 111.998 1474.85 128.074 1499.12 156.6C1519.53 180.579 1535.5 209.673 1551.41 239.877C1582.33 298.575 1627.3 367.176 1701.1 376.711C1732.35 380.747 1764.69 373.471 1794.99 365.014C1828.5 355.655 1861.76 344.547 1893.92 333.806C1912.49 327.604 1931.69 321.19 1950.75 315.177C1997.38 300.464 2052.87 283.929 2110.94 272.828C2155.1 264.389 2202.98 259.718 2245.75 259.685L2245.75 260.2C2203.01 260.234 2155.16 264.895 2111.03 273.334C2052.99 284.431 1997.51 300.961 1950.9 315.669C1931.84 321.683 1912.64 328.097 1894.08 334.294C1861.91 345.035 1828.66 356.147 1795.13 365.506C1764.78 373.983 1732.37 381.263 1701.04 377.22C1683.79 374.989 1667.11 369.349 1651.46 360.45C1637.42 352.464 1623.76 341.585 1610.84 328.116C1583.93 300.059 1563.77 264.455 1550.95 240.118C1523.88 188.724 1486.81 118.333 1418.43 107.97C1374.93 101.377 1331.93 122.956 1293.99 141.992L1293.82 142.076C1261.73 158.182 1222.2 178.676 1176.43 202.404C1148.57 216.843 1119.77 231.774 1089.63 247.28C1011.66 287.474 896.498 345.591 796.988 386.031C748.063 405.914 706.03 420.268 672.051 428.69C645.473 435.277 623.154 438.408 605.363 438.064Z" fill="url(#paint2_linear_1_9)"/>
<path d="M595.774 429.568C586.086 429.38 577.531 428.358 570.139 426.507C548.82 421.159 528.057 411.82 508.437 398.74C491.153 387.215 474.542 372.817 457.655 354.713C431.609 326.79 409.393 294.828 389.262 264.445C344.027 196.181 292.982 128.829 210.742 120.44C171.083 116.246 128.436 131.281 93.7294 161.693C59.0284 192.1 38.5302 232.29 37.4869 271.954L36.8907 271.937C37.4257 251.682 42.9213 231.421 53.2393 211.718C62.9432 193.185 76.8068 175.727 93.3405 161.242C109.869 146.757 128.99 135.309 148.634 128.134C169.578 120.484 190.499 117.693 210.81 119.845C248.483 123.69 282.696 140.335 315.409 170.732C343.945 197.25 368.007 231.282 389.763 264.118C409.879 294.475 432.08 326.417 458.096 354.308C493.722 392.506 530.419 415.934 570.288 425.929C590.815 431.078 620.405 429.76 658.231 422.014C692.003 415.097 733.414 402.827 781.305 385.543C879.736 350.023 991.924 298.313 1067.76 262.508C1097.16 248.67 1125.42 235.283 1152.75 222.333C1198.39 200.708 1237.82 182.027 1270.37 167.031L1273.54 165.568C1292.46 156.839 1312.03 147.817 1332.17 141.697C1355 134.762 1375.23 132.691 1394.03 135.375C1423.56 139.597 1449.93 154.541 1474.63 181.066C1496.48 204.523 1514.27 234.274 1528.58 258.176C1560.97 312.294 1607.35 375.308 1679.08 382.326C1711.23 385.467 1743.62 377.233 1771.06 368.766C1805.53 358.131 1839.31 345.015 1871.99 332.331C1890.96 324.97 1910.58 317.355 1930.13 310.296C1975.08 294.077 2034.55 274.045 2095.87 263.048C2142.76 254.642 2193.38 252.502 2234.75 257.172L2234.69 257.763C2193.36 253.098 2142.81 255.234 2095.97 263.631C2034.69 274.624 1975.26 294.641 1930.34 310.855C1910.78 317.91 1891.17 325.524 1872.21 332.886C1839.52 345.575 1805.72 358.696 1771.24 369.336C1746.98 376.824 1718.84 384.126 1690.41 383.575C1686.62 383.502 1682.82 383.29 1679.03 382.916C1662.09 381.258 1645.63 376.401 1630.09 368.474C1616.16 361.367 1602.5 351.538 1589.47 339.27C1562.65 313.993 1541.58 281.054 1528.07 258.477C1497.95 208.125 1460.46 145.461 1393.95 135.959C1352.12 129.985 1312.3 148.348 1273.8 166.103L1270.63 167.566C1238.07 182.562 1198.66 201.238 1153.01 222.863C1125.68 235.809 1097.43 249.195 1068.02 263.038C992.184 298.848 879.975 350.568 781.519 386.098C733.597 403.391 692.16 415.666 658.363 422.592C634.029 427.576 613.097 429.903 595.774 429.568Z" fill="url(#paint3_linear_1_9)"/>
<path d="M587.631 421.253C575.456 421.017 564.769 419.735 555.622 417.396C534.386 411.973 514.392 403.199 494.499 390.573C477.335 379.683 460.621 366.129 443.406 349.145C416.147 322.249 392.818 291.937 373.093 265.631C326.575 203.597 274.434 142.592 194.092 137.263C112.559 131.861 27.207 206.227 21.7757 287.408L21.1036 287.365C22.4172 267.706 28.4059 248.051 38.8909 228.937C48.7838 210.913 62.6139 193.867 78.8878 179.632C113.126 149.69 155.128 134.005 194.136 136.591C274.762 141.935 327.018 203.07 373.631 265.228C393.341 291.514 416.65 321.805 443.88 348.665C480.224 384.521 516.831 406.79 555.788 416.741C577.13 422.197 606.986 421.893 644.524 415.844C678.135 410.428 718.94 400.232 765.812 385.539C840.239 362.208 929.302 328.097 1046.11 278.189C1078.61 264.37 1109.73 251.044 1139.82 238.157C1179.37 221.217 1216.74 205.213 1247.14 192.45C1249.15 191.607 1251.17 190.753 1253.19 189.901C1290.52 174.161 1329.12 157.886 1369.54 163.298C1398.42 167.166 1424.6 180.8 1449.56 204.98C1471.28 226.018 1489.14 252.176 1504.9 275.255L1505.73 276.485C1541.67 329.07 1587.75 383.438 1657.05 387.961C1690.38 390.136 1724.42 380.201 1747.12 372.539C1782.54 360.592 1816.86 345.488 1850.05 330.882C1869.42 322.355 1889.44 313.541 1909.5 305.435C1955.5 286.841 2016.54 264.112 2080.79 253.284C2105.46 249.132 2131.57 247.078 2156.3 247.348C2180.75 247.618 2204.08 250.149 2223.76 254.681L2223.61 255.335C2183.07 246.006 2131.06 245.503 2080.91 253.949C2016.73 264.763 1955.73 287.477 1909.76 306.057C1889.71 314.163 1869.69 322.972 1850.33 331.494C1817.13 346.105 1782.79 361.219 1747.35 373.176C1726.08 380.35 1694.89 389.509 1663.6 388.904C1661.41 388.861 1659.21 388.773 1657.01 388.628C1587.42 384.084 1541.21 329.576 1505.19 276.856L1504.35 275.627C1473.01 229.732 1434.01 172.611 1369.46 163.964C1329.23 158.576 1290.71 174.817 1253.47 190.523C1251.44 191.376 1249.42 192.229 1247.41 193.072C1217.01 205.83 1179.65 221.834 1140.09 238.774C1110.01 251.661 1078.89 264.987 1046.39 278.806C929.566 328.719 840.476 362.84 766.029 386.175C719.126 400.878 678.29 411.084 644.649 416.504C623.057 419.992 604 421.57 587.631 421.253Z" fill="url(#paint4_linear_1_9)"/>
<path d="M581.551 413.192C566.053 412.892 552.534 411.254 541.11 408.285C520.267 402.87 500.466 394.406 480.565 382.417C463.547 372.166 446.734 359.462 429.167 343.582C402.321 319.32 378.764 292.363 356.939 266.827C309.174 210.953 255.974 156.224 177.451 154.097C98.0013 151.962 14.7292 224.248 6.06929 302.868L5.32142 302.787C9.44698 265.344 31.034 227.108 64.5498 197.881C97.9099 168.794 138.658 152.586 176.498 153.318C176.824 153.325 177.145 153.331 177.471 153.342C213.68 154.324 247.278 166.42 280.193 190.331C310.227 212.146 335.848 241.004 357.504 266.343C379.314 291.859 402.851 318.8 429.668 343.031C467.307 377.047 502.776 397.55 541.298 407.565C583.355 418.499 653.681 411.092 750.328 385.555C823.551 366.208 913.223 336.218 1024.48 293.885C1068.28 277.328 1111.06 260.966 1148.81 246.534C1175.97 236.15 1201.62 226.338 1223.92 217.884C1226.85 216.768 1229.8 215.642 1232.77 214.507C1268.86 200.681 1306.19 186.384 1345.06 191.231C1373.06 194.725 1398.83 206.894 1423.83 228.434C1445.62 247.199 1463.97 270.629 1480.17 291.3L1482.9 294.784C1520.34 342.453 1567.69 391.472 1635.02 393.591C1660.4 394.378 1689.23 388.732 1723.2 376.313C1759.55 363.022 1794.4 345.95 1828.1 329.442C1847.88 319.756 1868.32 309.741 1888.89 300.575C1935.94 279.605 1998.56 254.169 2065.73 243.525C2118.51 235.166 2173.49 238.407 2212.79 252.194L2212.54 252.903C2173.35 239.154 2118.51 235.926 2065.86 244.266C1998.77 254.897 1936.21 280.309 1889.2 301.259C1868.64 310.421 1848.21 320.43 1828.44 330.117C1794.72 346.634 1759.86 363.711 1723.46 377.022C1689.4 389.475 1660.47 395.129 1635 394.345C1603.82 393.364 1574.94 382.66 1546.74 361.619C1520.4 341.97 1498.47 315.83 1482.31 295.251L1479.58 291.767C1445.8 248.65 1407.51 199.787 1344.97 191.979C1306.28 187.156 1269.05 201.414 1233.04 215.211C1230.07 216.346 1227.12 217.477 1224.18 218.587C1201.89 227.042 1176.24 236.849 1149.08 247.238C1111.34 261.674 1068.56 278.032 1024.75 294.589C913.474 336.932 823.777 366.926 750.528 386.283C704.669 398.401 664.429 406.533 630.925 410.442C612.744 412.558 596.254 413.477 581.551 413.192Z" fill="url(#paint5_linear_1_9)"/>
<path d="M578.545 405.507C558.465 405.118 541.08 403.002 526.599 399.174C489.019 389.239 453.534 369.81 414.929 338.02C386.952 314.985 362.424 290.033 340.785 268.023C291.907 218.302 237.749 169.855 160.817 170.915C83.4915 171.997 2.24691 242.258 -9.63677 318.333L-10.4602 318.204C-4.79208 281.928 17.3205 244.721 50.2122 216.13C66.3131 202.136 83.9443 191.002 102.62 183.038C122.155 174.714 141.73 170.356 160.802 170.093C196.3 169.598 229.595 179.414 262.593 200.095C292.806 219.028 319.098 244.789 341.377 267.448C363.001 289.448 387.515 314.379 415.456 337.388C453.966 369.095 489.35 388.475 526.813 398.377C604.916 419.023 760.628 389.971 1002.85 309.567C1075.18 285.772 1142.9 262.882 1200.69 243.302C1204.53 242 1208.47 240.644 1212.27 239.326C1247.15 227.286 1283.21 214.841 1320.57 219.149C1347.66 222.273 1372.97 233.021 1397.94 251.996C1419.72 268.553 1438.51 289.305 1455.1 307.613C1456.76 309.45 1458.41 311.271 1460.04 313.067C1500.89 357.952 1547.72 399.456 1612.98 399.211C1638.57 399.11 1666.79 392.85 1699.26 380.071C1736.54 365.396 1771.91 346.381 1806.13 327.997C1826.31 317.151 1847.18 305.931 1868.26 295.7C1900.8 279.903 1929.71 267.559 1956.65 257.976C1989.85 246.159 2020.6 238.231 2050.66 233.745C2077.7 229.711 2105.91 229.028 2132.26 231.761C2158.89 234.525 2182.93 240.726 2201.8 249.698L2201.45 250.45C2163.57 232.444 2105.84 226.355 2050.78 234.568C1996.17 242.718 1939.99 261.804 1868.63 296.446C1847.57 306.668 1826.7 317.883 1806.53 328.728C1772.29 347.128 1736.89 366.152 1699.57 380.846C1667.01 393.665 1638.69 399.943 1613 400.042C1611.81 400.045 1610.63 400.037 1609.46 400.014C1545.69 398.779 1499.68 357.837 1459.44 313.626C1457.8 311.825 1456.15 310.004 1454.49 308.167C1420.02 270.099 1380.94 226.945 1320.49 219.968C1283.31 215.679 1247.34 228.095 1212.56 240.106C1208.75 241.419 1204.81 242.78 1200.97 244.083C1143.17 263.667 1075.45 286.552 1003.12 310.352C896.095 345.879 808.403 370.743 735.033 386.37C690.239 395.908 650.6 401.967 617.206 404.364C603.386 405.361 590.485 405.738 578.545 405.507Z" fill="url(#paint6_linear_1_9)"/>
<path d="M580.334 398.404C553.7 397.889 530.812 395.095 512.082 390.068C475.687 380.293 440.292 361.988 400.69 332.467C374.878 313.227 351.231 292.519 330.361 274.245C328.436 272.561 326.526 270.888 324.63 269.23C274.788 225.648 219.8 183.461 144.176 187.748C68.9816 192.012 -10.2356 260.257 -25.3484 333.797L-26.2421 333.612C-22.5609 315.696 -15.0866 297.778 -4.02764 280.352C6.64228 263.536 20.0647 248.063 35.8745 234.364C51.7517 220.601 69.0564 209.475 87.3032 201.299C106.357 192.761 125.478 187.891 144.128 186.834C178.941 184.863 211.934 192.389 244.989 209.843C275.546 225.979 302.429 248.601 325.235 268.543C327.13 270.201 329.04 271.874 330.965 273.558C351.82 291.816 375.453 312.514 401.234 331.734C440.741 361.181 476.04 379.438 512.318 389.185C594.36 411.223 752.118 389.709 981.216 325.248C1046.73 307.026 1116.43 286.953 1177.47 268.716C1182.2 267.304 1187.07 265.802 1191.77 264.354C1225.42 253.988 1260.21 243.272 1296.09 247.061C1322.22 249.826 1347.01 259.187 1371.86 275.672C1393.58 290.082 1411.91 307.429 1429.63 324.209C1432.18 326.624 1434.7 329.008 1437.19 331.345C1479.51 371.023 1527.43 407.399 1590.95 404.831C1616.31 403.803 1644.7 396.741 1675.32 383.834C1713.51 367.739 1749.41 346.807 1784.13 326.567C1804.73 314.556 1826.03 302.137 1847.63 290.829C1880.81 273.454 1910.47 259.948 1938.32 249.526C1972.56 236.719 2004.37 228.357 2035.58 223.97C2063.81 220.005 2093.08 220.001 2120.23 223.968C2147.92 228.012 2172.33 236.05 2190.82 247.216L2190.34 247.997C2153.18 225.554 2093.94 216.693 2035.71 224.875C1961.99 235.245 1893.3 267.945 1848.04 291.637C1826.47 302.935 1805.17 315.35 1784.58 327.355C1749.84 347.611 1713.91 368.557 1675.67 384.676C1644.94 397.627 1616.45 404.713 1590.98 405.744C1561.04 406.954 1532.59 399.821 1504 383.947C1477.94 369.473 1455.28 349.57 1436.56 332.011C1434.06 329.668 1431.54 327.284 1429 324.875C1393.98 291.716 1354.28 254.138 1295.99 247.972C1260.3 244.202 1225.6 254.889 1192.04 265.226C1187.33 266.674 1182.47 268.176 1177.73 269.588C1116.69 287.825 1046.99 307.898 981.465 326.12C880.413 354.553 792.279 374.861 719.517 386.473C675.823 393.442 636.78 397.422 603.471 398.302C595.468 398.519 587.754 398.548 580.334 398.404Z" fill="url(#paint7_linear_1_9)"/>
<path d="M1552.66 411.935C1529.09 411.479 1506.05 405.93 1482.67 395.127C1456.59 383.08 1433.17 365.762 1413.71 350.411C1410.2 347.641 1406.73 344.857 1403.05 341.905C1367.64 313.521 1327.52 281.344 1271.51 275.977C1237.31 272.704 1203.89 281.769 1171.57 290.539C1165.96 292.062 1160.15 293.637 1154.51 295.098C1097.71 309.798 1028.57 326.42 959.818 341.897C845.438 368.059 700.944 394.398 590.017 392.255C555.245 391.581 523.79 388.112 497.571 380.962C452.065 368.548 414.288 345.558 386.461 326.915C363.899 311.8 343.5 296.56 323.775 281.821C318.488 277.869 313.498 274.143 308.497 270.442C257.873 232.958 202.204 196.998 127.552 204.576C54.4983 211.992 -22.7127 278.257 -41.0547 349.272L-42.0134 349.024C-37.538 331.69 -29.5652 314.352 -18.3285 297.491C-7.44369 281.163 5.97156 266.062 21.5369 252.608C37.1955 239.08 54.1686 227.963 71.9914 219.57C90.5705 210.819 109.232 205.44 127.453 203.596C161.607 200.127 194.298 205.364 227.384 219.607C255.36 231.645 280.283 248.32 309.088 269.653C314.089 273.354 319.08 277.086 324.366 281.037C344.081 295.765 364.47 311.001 387.012 326.1C414.779 344.701 452.465 367.638 497.834 380.013C607.498 409.932 809.478 375.28 959.602 340.94C1028.34 325.462 1097.47 308.845 1154.26 294.145C1159.9 292.684 1165.7 291.109 1171.32 289.586C1203.72 280.792 1237.23 271.703 1271.61 274.995C1327.91 280.393 1368.16 312.664 1403.67 341.137C1407.35 344.084 1410.82 346.868 1414.32 349.638C1455.03 381.74 1503.91 415.564 1568.91 410.471C1594.31 408.475 1622.06 400.784 1651.38 387.617C1690.45 370.071 1726.88 347.248 1762.1 325.176C1783.13 311.997 1804.88 298.372 1827 285.979C1860.82 267.031 1891.24 252.351 1920.01 241.1C1955.27 227.304 1988.14 218.509 2020.52 214.216C2049.93 210.32 2080.26 210.999 2108.22 216.19C2136.95 221.523 2161.73 231.404 2179.85 244.755L2179.26 245.555C2143.36 219.103 2081.1 207.186 2020.65 215.198C1943.99 225.368 1873.7 260.958 1827.49 286.845C1805.39 299.223 1783.65 312.843 1762.63 326.018C1727.38 348.109 1690.93 370.947 1651.79 388.527C1622.37 401.743 1594.51 409.462 1568.99 411.466C1563.51 411.88 1558.07 412.04 1552.66 411.935Z" fill="url(#paint8_linear_1_9)"/>
<path d="M1522.88 418.349C1470.28 417.33 1427.48 392.616 1390.86 368.807C1386.14 365.733 1381.45 362.599 1376.49 359.28C1340.92 335.512 1300.6 308.567 1247.03 303.976C1214.34 301.182 1182.24 308.728 1151.2 316.024C1144.65 317.564 1137.86 319.161 1131.28 320.604C1075.71 332.778 1007.13 345.944 938.166 357.67C848.201 373.308 761.862 383.347 688.479 386.703C602.044 390.658 532.927 385.659 483.059 371.846C439.986 359.918 402.866 339.627 372.238 321.353C354.588 310.825 338.073 300.38 322.102 290.277C311.747 283.73 301.966 277.545 292.368 271.644C241.184 240.186 185.013 210.395 110.922 221.395C40.0309 231.921 -35.1945 296.226 -56.7714 364.742L-57.7951 364.421C-47.3164 331.154 -24.2355 297.917 7.19936 270.837C38.9661 243.468 75.7453 225.536 110.764 220.336C185.208 209.287 241.576 239.173 292.926 270.732C302.529 276.633 312.31 282.823 322.67 289.371C338.636 299.468 355.141 309.908 372.781 320.431C403.348 338.668 440.393 358.916 483.339 370.811C608.472 405.465 821.898 376.786 937.983 356.606C1006.93 344.88 1075.49 331.718 1131.05 319.549C1137.63 318.106 1144.4 316.514 1150.96 314.974C1182.08 307.654 1214.26 300.089 1247.12 302.902C1300.97 307.514 1341.4 334.538 1377.08 358.379C1382.04 361.698 1386.73 364.832 1391.44 367.901C1433.35 395.146 1483.37 423.584 1546.86 416.08C1572.23 413.079 1599.35 404.764 1627.44 391.364C1667.36 372.326 1704.31 347.642 1740.04 323.765C1761.51 309.417 1783.71 294.583 1806.37 281.093C1881.45 236.393 1944.71 212.03 2005.45 204.427C2069.29 196.44 2133.43 211.294 2168.88 242.264L2168.17 243.071C2132.95 212.289 2069.14 197.538 2005.59 205.49C1945 213.075 1881.88 237.395 1806.93 282.016C1784.29 295.491 1762.1 310.32 1740.64 324.659C1704.88 348.555 1667.9 373.264 1627.91 392.332C1599.71 405.78 1572.48 414.129 1546.99 417.143C1538.72 418.125 1530.69 418.5 1522.88 418.349Z" fill="url(#paint9_linear_1_9)"/>
<path d="M1491.13 425.233C1474.3 424.907 1457.37 422.326 1440 417.473C1413.66 410.11 1389.84 398.571 1368.02 387.197C1361.83 383.962 1355.65 380.595 1349.11 377.027C1313.64 357.701 1273.45 335.796 1222.54 331.971C1191.42 329.635 1160.72 335.754 1131.03 341.669C1123.46 343.18 1115.63 344.736 1108.04 346.103C1051.77 356.209 985.537 365.659 916.505 373.438C831.769 383.314 747.549 387.943 672.943 386.825C589.759 385.576 520.983 377.474 468.537 362.739C426.492 350.923 389.436 332.316 358.009 315.806C347.961 310.528 338.171 305.302 328.705 300.245C310.277 290.405 292.873 281.11 276.244 272.861C227.01 248.43 168.285 223.596 94.2968 238.223C24.4489 252.033 -47.2519 313.082 -72.4934 380.231L-73.5715 379.828C-61.5046 347.734 -37.918 315.501 -7.14329 289.076C24.0411 262.298 59.9893 243.835 94.0739 237.097C127.038 230.583 159.113 231.229 192.146 239.083C223.605 246.559 252.571 259.835 276.754 271.836C293.397 280.096 310.811 289.391 329.245 299.235C338.711 304.287 348.495 309.514 358.544 314.791C389.92 331.275 426.91 349.85 468.849 361.634C569.278 389.855 732.392 393.742 916.374 372.298C985.386 364.524 1051.59 355.074 1107.84 344.978C1115.42 343.616 1123.24 342.059 1130.8 340.549C1160.57 334.615 1191.35 328.481 1222.63 330.83C1273.79 334.676 1314.09 356.645 1349.66 376.023C1356.2 379.586 1362.37 382.953 1368.56 386.183C1411.52 408.58 1462.57 431.649 1524.81 421.72C1549.73 417.737 1576.94 408.546 1603.5 395.147C1644.23 374.59 1681.7 348.065 1717.93 322.419C1739.86 306.897 1762.53 290.843 1785.74 276.243C1862.36 228.039 1927.38 202.12 1990.38 194.667C2022.17 190.909 2054.61 192.964 2084.18 200.603C2114.99 208.561 2140.47 222.117 2157.9 239.808L2157.08 240.613C2122.52 205.521 2057.15 187.93 1990.51 195.807C1927.69 203.237 1862.82 229.103 1786.35 277.213C1763.17 291.799 1740.51 307.842 1718.59 323.355C1682.32 349.026 1644.83 375.575 1604.01 396.172C1577.35 409.63 1550.02 418.854 1524.98 422.855C1513.68 424.655 1502.42 425.452 1491.13 425.233Z" fill="url(#paint10_linear_1_9)"/>
<path d="M1457.06 432.736C1444.49 432.492 1431.74 431.129 1418.68 428.648C1391.91 423.556 1367.54 414.56 1345.2 405.599C1337.17 402.369 1329.14 398.904 1320.62 395.237C1285.64 380.157 1245.99 363.065 1198.06 359.975C1168.62 358.08 1139.43 362.867 1111.2 367.49C1102.51 368.918 1093.52 370.39 1084.8 371.608C1028.14 379.55 962.458 385.635 894.838 389.205C815.591 393.701 733.489 392.917 657.406 386.947C579.349 380.822 509.023 369.299 454.026 353.623C413.636 342.109 376.533 325.183 343.796 310.249C313.161 296.273 285.717 283.903 260.136 274.068C207.264 253.737 148.564 237.362 77.6825 255.036C10.1208 271.888 -59.6468 331.048 -88.2101 395.711L-89.3323 395.215C-75.6717 364.284 -51.5694 333.06 -21.4702 307.295C9.14219 281.092 44.2491 262.108 77.3895 253.843C109.833 245.753 141.612 244.1 174.527 248.8C207.416 253.495 237.789 264.153 260.582 272.919C286.193 282.765 313.652 295.145 344.307 309.132C377.004 324.05 414.062 340.955 454.36 352.441C565.241 384.046 729.88 397.329 894.77 387.98C962.355 384.41 1028 378.329 1084.63 370.392C1093.33 369.173 1102.31 367.701 1111 366.273C1139.3 361.636 1168.56 356.839 1198.13 358.743C1246.28 361.847 1286.03 378.982 1321.1 394.099C1329.61 397.766 1337.64 401.226 1345.65 404.45C1389.51 422.047 1441.43 439.774 1502.75 427.339C1527.51 422.313 1554.07 412.478 1579.55 398.905C1621.05 376.792 1659.03 348.468 1695.76 321.083C1718.16 304.376 1741.33 287.098 1765.1 271.367C1800.85 247.715 1833.54 229.52 1865.04 215.753C1903.39 198.988 1939.46 188.894 1975.3 184.888C2007.81 181.26 2042.2 184.067 2072.16 192.804C2103.98 202.083 2129.83 217.485 2146.91 237.337L2145.98 238.14C2112.6 199.354 2044.07 178.444 1975.44 186.109C1910.38 193.383 1843.75 220.796 1765.78 272.394C1742.03 288.106 1718.88 305.369 1696.49 322.07C1659.72 349.485 1621.71 377.84 1580.12 399.997C1554.54 413.624 1527.87 423.497 1502.98 428.552C1487.77 431.643 1472.54 433.035 1457.06 432.736Z" fill="url(#paint11_linear_1_9)"/>
<path d="M1418.95 441.154C1383.36 440.465 1351.19 432.317 1322.39 423.995C1312 420.984 1301.56 417.581 1290.51 413.976C1256.54 402.903 1218.04 390.35 1173.59 387.975C1146.01 386.508 1118.54 390.049 1091.97 393.476C1081.96 394.766 1071.6 396.105 1061.57 397.114C1004.29 402.892 939.145 405.607 873.176 404.977C729.723 404.142 567.609 381.543 439.519 344.517C406.885 335.086 376.314 323.058 346.756 311.428C341.114 309.208 335.285 306.913 329.598 304.702C295.154 291.305 267.972 281.954 244.053 275.281C193.994 261.311 133.111 249.987 61.0832 271.86C-4.14459 291.668 -71.9951 348.974 -103.922 411.206L-105.088 410.608C-73.0127 348.082 -4.83596 290.513 60.7047 270.609C92.7058 260.89 124.172 256.941 156.907 258.533C183.337 259.82 211.139 264.743 244.409 274.024C268.374 280.707 295.596 290.07 330.08 303.488C335.768 305.699 341.601 307.994 347.243 310.214C376.776 321.833 407.316 333.85 439.89 343.265C567.873 380.258 729.86 402.84 873.196 403.673C939.119 404.307 1004.21 401.591 1061.45 395.816C1071.46 394.807 1081.81 393.473 1091.81 392.183C1118.44 388.747 1145.97 385.197 1173.67 386.671C1218.29 389.055 1256.88 401.635 1290.93 412.735C1301.97 416.334 1312.4 419.738 1322.77 422.738C1367.3 435.601 1419.91 448.065 1480.71 432.98C1505.26 426.883 1531.17 416.409 1555.63 402.684C1597.86 378.989 1636.34 348.9 1673.56 319.801C1696.46 301.902 1720.14 283.39 1744.5 266.512C1780.89 241.292 1814.33 221.929 1846.74 207.318C1886.12 189.564 1923.25 179.031 1960.26 175.124C1993.94 171.57 2029.42 175.086 2060.17 185.022C2093 195.635 2119.21 212.875 2135.96 234.882L2134.92 235.672C2102.19 192.667 2032.05 168.856 1960.4 176.421C1893.1 183.53 1824.73 212.5 1745.24 267.587C1720.92 284.439 1697.26 302.942 1674.37 320.832C1637.11 349.96 1598.58 380.079 1556.27 403.823C1531.71 417.602 1505.69 428.125 1481.03 434.245C1459.28 439.641 1438.59 441.529 1418.95 441.154Z" fill="url(#paint12_linear_1_9)"/>
<path d="M-119.664 426.701L-120.859 425.995C-103.702 396.931 -79.2504 368.492 -50.1549 343.748C-20.2248 318.291 12.3275 298.798 43.9895 287.37C75.631 275.95 106.79 269.697 139.248 268.25C166.899 267.017 195.162 269.2 228.196 275.122C254.508 279.837 283.164 287.265 315.813 297.833C329.214 302.171 342.422 306.72 356.4 311.533C378.648 319.198 401.655 327.123 425.385 334.077C531.677 365.226 691.504 407.955 851.592 419.36C915.742 424.16 980.278 424.808 1038.23 421.235C1049.89 420.518 1061.94 419.375 1073.6 418.27C1098.22 415.937 1123.69 413.519 1149.16 414.589C1189.47 416.282 1224.38 424.299 1258.14 432.055C1272.62 435.384 1286.3 438.524 1299.84 441.014C1348.1 449.872 1400.74 455.714 1458.64 438.609C1482.92 431.432 1508.17 420.312 1531.67 406.451C1574.57 381.148 1613.56 349.331 1651.26 318.564C1674.68 299.451 1698.89 279.69 1723.85 261.641C1760.89 234.858 1795.09 214.322 1828.41 198.867C1868.25 180.383 1907.54 169.102 1945.19 165.344C1980.03 161.864 2016.6 166.085 2048.15 177.228C2081.98 189.176 2108.55 208.258 2124.96 232.41L2123.82 233.189C2091.72 185.98 2019.99 159.263 1945.32 166.723C1875.78 173.671 1805.66 204.188 1724.67 262.768C1699.74 280.792 1675.54 300.538 1652.14 319.642C1614.4 350.443 1575.37 382.291 1532.38 407.648C1508.78 421.568 1483.42 432.731 1459.03 439.942C1432.4 447.813 1405.26 451.422 1376.07 450.979C1375.63 450.97 1375.18 450.967 1374.75 450.959C1346.61 450.414 1319.85 446.102 1299.59 442.381C1286.03 439.88 1272.34 436.74 1257.84 433.405C1224.13 425.666 1189.29 417.66 1149.11 415.974C1123.72 414.912 1098.31 417.321 1073.74 419.649C1062.07 420.754 1050 421.896 1038.32 422.619C980.307 426.196 915.7 425.546 851.494 420.744C782.966 415.864 707.201 404.588 626.307 387.227C564.777 374.024 498.931 357.072 425.003 335.411C401.242 328.445 378.219 320.515 355.951 312.85C341.978 308.037 328.78 303.489 315.389 299.156C282.807 288.609 254.207 281.193 227.955 276.489C181.382 268.143 118.436 261.984 44.4689 288.679C-18.3467 311.343 -84.3007 366.809 -119.664 426.701Z" fill="url(#paint13_linear_1_9)"/>
<path d="M-135.397 442.196L-136.615 441.377C-117.751 413.427 -92.8136 385.966 -64.4972 361.961C-35.0923 337.035 -3.35614 317.037 27.2894 304.13C58.6751 290.912 89.5219 282.353 121.598 277.962C150.127 274.059 179.698 273.489 211.993 276.225C240.155 278.611 269.45 283.828 301.555 292.179C324.651 298.188 347.405 305.282 371.496 312.799C384.322 316.8 397.589 320.937 410.901 324.89C436.956 332.629 463.703 340.973 492.02 349.801C595.562 382.089 712.913 418.683 830.013 435.052C892.34 443.968 956.321 447.975 1015.04 446.655C1028.94 446.342 1043.33 445.454 1057.25 444.591C1079.26 443.233 1102.02 441.823 1124.67 442.507C1159.29 443.554 1190.66 448.031 1221 452.361C1240.45 455.139 1258.83 457.763 1276.91 459.301C1322.98 463.201 1377.97 464.46 1436.57 444.243C1460.52 435.979 1485.13 424.215 1507.72 410.224C1551.22 383.291 1590.7 349.796 1628.88 317.402C1652.85 297.06 1677.64 276.026 1703.22 256.786C1740.91 228.44 1775.86 206.736 1810.09 190.432C1829.78 181.055 1849.46 173.412 1868.59 167.715C1889.25 161.569 1909.95 157.484 1930.12 155.575C1966.13 152.173 2003.79 157.098 2036.14 169.44C2070.97 182.733 2097.89 203.657 2113.99 229.95L2112.74 230.716C2076.39 171.341 1994.9 150.925 1930.26 157.03C1859.45 163.72 1785.48 196.731 1704.1 257.95C1678.55 277.165 1653.78 298.184 1629.83 318.511C1591.61 350.94 1552.09 384.476 1508.49 411.463C1485.8 425.512 1461.1 437.326 1437.05 445.624C1410.81 454.675 1383.89 460.073 1354.77 462.129C1331.81 463.75 1307.03 463.316 1276.78 460.752C1258.66 459.208 1240.26 456.583 1220.78 453.799C1190.48 449.476 1159.15 445.004 1124.62 443.959C1102.02 443.276 1079.3 444.682 1057.33 446.041C1043.4 446.903 1028.99 447.791 1015.07 448.108C956.267 449.432 892.205 445.413 829.797 436.491C712.58 420.109 595.163 383.494 491.57 351.189C463.258 342.361 436.516 334.023 410.471 326.284C397.15 322.325 383.883 318.188 371.046 314.187C346.975 306.681 324.237 299.587 301.176 293.589C269.152 285.26 239.938 280.055 211.858 277.676C144.824 271.998 86.3548 280.833 27.8445 305.477C-33.3234 331.252 -95.8785 383.638 -135.397 442.196Z" fill="url(#paint14_linear_1_9)"/>
<path d="M-151.14 457.695L-152.366 456.754C-108.866 400.063 -47.9478 349.276 10.5786 320.901C41.8233 305.752 72.358 294.883 103.928 287.674C133.696 280.878 163.744 277.493 195.779 277.334C224.99 277.186 255.779 280.28 287.287 286.529C323.047 293.619 357.985 304.141 394.976 315.278L396.406 315.708C444.867 330.3 494.565 348.708 547.184 368.198C631.606 399.468 718.899 431.804 808.429 450.749C878.946 465.865 938.929 472.838 991.817 472.078C1003.78 471.907 1016.1 471.58 1028.03 471.26C1051.59 470.635 1075.96 469.991 1100.17 470.429C1126.36 470.89 1151.22 472.58 1175.25 474.203C1202.71 476.055 1228.65 477.801 1253.98 477.598C1297.12 477.235 1354.35 473.76 1414.5 449.888C1438.39 440.404 1461.69 428.329 1483.77 414.002C1527.8 385.428 1567.76 350.294 1606.4 316.324C1630.95 294.729 1656.35 272.401 1682.59 251.925C1720.91 222.017 1756.63 199.139 1791.76 181.991C1811.94 172.145 1832.13 164.149 1851.78 158.233C1873 151.843 1894.28 147.662 1915.04 145.805C1952.23 142.482 1990.96 148.111 2024.12 161.657C2059.95 176.294 2087.23 199.061 2103 227.493L2101.64 228.242C2071.28 173.511 1994.6 140.249 1915.18 147.342C1842.17 153.872 1766.4 188.479 1683.54 253.142C1657.34 273.588 1631.96 295.901 1607.41 317.48C1568.73 351.491 1528.74 386.659 1484.61 415.298C1462.45 429.684 1439.05 441.803 1415.08 451.321C1354.69 475.286 1297.27 478.778 1253.99 479.143C1228.61 479.345 1202.64 477.593 1175.15 475.74C1151.44 474.144 1126.94 472.492 1101.16 471.993C1100.82 471.986 1100.48 471.98 1100.15 471.973C1075.96 471.536 1051.62 472.181 1028.07 472.806C1016.15 473.12 1003.81 473.447 991.838 473.623C938.832 474.386 878.732 467.4 808.104 452.263C718.467 433.29 631.114 400.937 546.641 369.645C494.047 350.161 444.37 331.763 395.954 317.183L394.524 316.753C357.569 305.626 322.666 295.116 286.983 288.042C255.576 281.816 224.893 278.728 195.78 278.878C130.292 279.206 71.6551 293.003 11.2451 322.29C-47.0705 350.573 -107.776 401.19 -151.14 457.695Z" fill="url(#paint15_linear_1_9)"/>
<path d="M993.361 500.021C985.039 499.86 976.755 499.582 968.565 499.128C907.32 495.719 846.033 485.254 786.412 468.019C712.029 446.665 639.455 414.344 569.271 383.084C504.395 354.191 443.118 326.901 381.447 308.082C351.945 299.079 312.938 288.04 272.805 282.496C241.357 278.155 210.039 277.34 179.718 280.077C116.522 285.781 55.9888 305.089 -5.33871 339.105C-60.8939 369.638 -118.264 417.261 -166.878 473.211L-168.106 472.142C-145.449 446.07 -119.551 420.555 -93.2119 398.352C-64.2192 373.917 -34.9222 353.505 -6.12679 337.677C55.4018 303.548 116.145 284.178 179.571 278.453C210.014 275.708 241.455 276.521 273.025 280.884C313.275 286.441 352.363 297.506 381.921 306.526C443.693 325.373 505.011 352.683 569.932 381.598C640.065 412.832 712.589 445.131 786.865 466.458C846.37 483.659 907.53 494.107 968.658 497.508C992.594 498.839 1017.43 498.652 1041.45 498.464C1052.66 498.381 1064.25 498.289 1075.68 498.352C1086.76 498.414 1097.79 498.546 1108.45 498.671C1151.39 499.176 1191.94 499.65 1231.05 495.901C1293.42 489.905 1344.7 477.081 1392.43 455.533C1415.84 444.964 1438.51 432.265 1459.83 417.78C1504.31 387.553 1544.72 350.848 1583.79 315.351C1608.98 292.469 1635.03 268.812 1661.96 247.07C1700.93 215.599 1737.4 191.553 1773.45 173.551C1794.1 163.234 1814.81 154.892 1834.98 148.752C1856.76 142.123 1878.63 137.845 1899.98 136.041C1938.33 132.797 1978.15 139.135 2012.11 153.879C2048.92 169.866 2076.56 194.475 2092.01 225.043L2090.56 225.774C2055.83 157.107 1967.49 131.96 1900.11 137.66C1824.89 144.024 1747.33 180.223 1662.97 248.334C1636.08 270.046 1610.05 293.687 1584.88 316.555C1545.76 352.092 1505.31 388.836 1460.74 419.128C1439.35 433.662 1416.59 446.411 1393.1 457.019C1345.2 478.641 1293.76 491.512 1231.2 497.525C1192 501.283 1151.41 500.808 1108.43 500.302C1097.76 500.177 1086.74 500.045 1075.67 499.983C1064.25 499.92 1052.66 500.007 1041.45 500.091C1025.62 500.207 1009.42 500.332 993.361 500.021Z" fill="url(#paint16_linear_1_9)"/>
<path d="M1005.32 527.798C985.418 527.413 965.226 526.512 945.308 524.628C883.275 518.756 822.515 505.008 764.71 483.766C700.145 460.109 637.358 426.815 576.634 394.621C505.233 356.761 437.793 321.001 366.926 298.971C327.506 286.844 292.076 279.637 258.617 276.94C226.68 274.44 194.726 275.891 163.646 281.259C102.531 291.654 41.8225 316.066 -21.9374 355.903C-73.6547 388.071 -127.72 432.75 -182.63 488.71L-183.846 487.514C-128.842 431.458 -74.673 386.69 -22.8372 354.453C41.1188 314.498 102.022 290.002 163.362 279.577C194.581 274.186 226.677 272.727 258.757 275.24C292.343 277.95 327.89 285.179 367.436 297.344C438.46 319.424 509.115 356.887 577.443 393.118C638.111 425.29 700.848 458.552 765.307 482.171C822.975 503.365 883.593 517.08 945.479 522.938C980.887 526.29 1017.21 526.525 1051.2 526.285C1115.62 525.825 1164.02 522.102 1208.13 514.218C1268.33 503.449 1321.4 486.103 1370.37 461.188C1393.19 449.577 1415.24 436.244 1435.89 421.569C1480.73 389.696 1521.56 351.475 1561.06 314.518C1586.92 290.308 1613.67 265.279 1641.34 242.22C1727.45 170.427 1807.13 132.505 1884.93 126.277C1924.45 123.117 1965.36 130.154 2000.11 146.102C2037.92 163.444 2065.9 189.895 2081.05 222.592L2079.5 223.307C2045.47 149.84 1954.85 122.39 1885.06 127.978C1807.63 134.171 1728.26 171.972 1642.42 243.526C1614.8 266.555 1588.07 291.569 1562.22 315.759C1522.69 352.756 1481.81 391.012 1436.87 422.954C1416.16 437.679 1394.04 451.057 1371.14 462.707C1322.02 487.695 1268.8 505.095 1208.43 515.896C1164.22 523.799 1115.74 527.53 1051.21 527.988C1036.27 528.082 1020.88 528.1 1005.32 527.798Z" fill="url(#paint17_linear_1_9)"/>
<path d="M999.242 555.996C969.872 555.427 940.635 552.98 911.735 548.663C852.66 539.831 795.89 523.294 743.008 499.502C685.653 473.7 630.198 439.049 576.566 405.54C473.151 340.922 366.214 274.103 244.435 271.373C244.088 271.366 243.721 271.359 243.375 271.353C76.914 268.129 -66.1184 384.597 -198.393 504.209L-199.591 502.886C-139.605 448.64 -69.3254 386.977 5.68932 341.719C88.6326 291.68 166.399 268.073 243.394 269.563C243.751 269.57 244.113 269.577 244.47 269.584C273.873 270.245 302.918 274.458 333.261 282.464C360.301 289.6 387.77 299.614 417.237 313.073C471.972 338.074 525.624 371.599 577.508 404.019C631.089 437.497 686.489 472.116 743.733 497.869C824.863 534.363 912.576 553.13 1000.51 554.833C1146.58 557.661 1293.31 513.456 1411.92 425.326C1457.01 391.822 1498.24 352.176 1538.11 313.829C1564.72 288.236 1592.23 261.774 1620.69 237.339C1708.31 162.078 1789.81 122.544 1869.85 116.487C1910.54 113.406 1952.53 121.152 1988.08 138.298C2026.87 157 2055.21 185.293 2070.05 220.116L2068.41 220.813C2035.07 142.562 1942.18 112.8 1869.99 118.264C1790.35 124.293 1709.18 163.685 1621.85 238.692C1593.44 263.097 1565.94 289.54 1539.35 315.118C1499.44 353.499 1458.18 393.185 1412.99 426.759C1366.44 461.346 1314.55 489.681 1258.75 510.982C1204.11 531.836 1146.55 545.654 1087.66 552.049C1058.19 555.251 1028.65 556.565 999.242 555.996Z" fill="url(#paint18_linear_1_9)"/>
<path d="M1127.93 685.235C1054.94 683.826 985.167 651.223 920.356 615.79C750.517 522.941 594.166 407.303 455.655 272.098C452.093 268.624 448.481 265.071 444.984 261.634C415.831 232.988 385.693 203.365 350.275 182.057C305.635 155.197 257.249 146.449 217.523 158.054C149.875 177.815 112.676 249.005 83.119 314.184L82.7956 314.035C97.5581 281.488 114.159 247.458 135.509 219.097C159.831 186.787 186.624 166.709 217.428 157.71C238.532 151.547 261.521 150.932 285.749 155.888C307.285 160.291 329.667 169.234 350.46 181.75C385.912 203.084 416.071 232.718 445.233 261.379C448.73 264.816 452.342 268.368 455.905 271.843C594.396 407.027 750.717 522.644 920.525 615.477C989.392 653.125 1063.87 687.573 1141.8 684.764C1238.21 681.288 1323.35 621.844 1400.98 558.126C1406.76 553.385 1412.65 548.523 1418.34 543.82C1488.4 485.971 1560.83 426.154 1648.96 405.281C1713.51 389.987 1783.25 395.778 1862.17 422.971C1933.26 447.468 2003.36 486.583 2063.49 521.329L2063.31 521.637C1955.13 459.133 1841.28 399.655 1727.38 397.449C1701.24 396.943 1675.12 399.45 1649.04 405.629C1560.99 426.484 1488.59 486.276 1418.57 544.095C1412.87 548.797 1406.98 553.659 1401.21 558.401C1366.67 586.746 1325.24 619.052 1279.85 643.751C1231.65 669.981 1186.49 683.514 1141.81 685.121C1137.17 685.291 1132.54 685.324 1127.93 685.235Z" fill="url(#paint19_linear_1_9)"/>
<path d="M1096.95 673.847C1070.58 673.337 1043.33 669.189 1014.41 661.334C981.489 652.386 946.764 638.764 905.132 618.472C808.434 571.343 710.018 508.157 612.608 430.664C552.788 383.168 493.015 330.019 434.945 272.691C431.593 269.384 428.247 266.056 424.896 262.734C395.288 233.34 364.676 202.948 329.012 180.677C326.02 178.804 322.955 176.981 319.899 175.249C277.832 151.391 233.997 142.976 196.471 151.554C127.432 167.332 87.2342 233.304 54.9769 293.904L54.5782 293.693C86.8832 233.002 127.149 166.934 196.373 151.113C234.011 142.512 277.958 150.945 320.126 174.861C323.187 176.593 326.256 178.421 329.254 180.299C364.963 202.597 395.591 233.01 425.218 262.419C428.564 265.741 431.916 269.064 435.267 272.376C493.322 329.693 553.085 382.832 612.895 430.318C710.28 507.785 808.671 570.955 905.334 618.074C965.854 647.571 1046.06 680.371 1129.75 672.122C1225.54 662.679 1310.8 600.485 1383.22 542.926C1385.97 540.747 1388.7 538.566 1391.43 536.391C1469.79 473.941 1550.82 409.361 1648.4 391.576C1659.4 389.551 1671.04 388.089 1683 387.24C1743.37 382.949 1807.34 395.674 1878.57 426.154C1945.87 454.952 2011.12 496.44 2060.44 529.371L2060.19 529.749C1941.45 450.477 1813.57 378.405 1683.04 387.694C1671.09 388.544 1659.47 390.001 1648.48 392.027C1551.01 409.793 1470.03 474.333 1391.71 536.749C1388.98 538.924 1386.25 541.104 1383.5 543.284C1348.6 571.025 1307.08 602.661 1263.74 626.971C1216.57 653.425 1172.76 668.341 1129.8 672.577C1118.97 673.631 1108.04 674.062 1096.95 673.847Z" fill="url(#paint20_linear_1_9)"/>
<path d="M1062.82 663.826C1042.91 663.44 1022.52 661.19 1001.36 657.068C966.891 650.36 930.442 638.611 889.918 621.155C840 599.653 788.501 572.094 736.85 539.245C689.857 509.357 641.34 474.193 592.641 434.733C533.885 387.283 475.529 334.472 414.24 273.295C411.129 270.186 408.018 267.072 404.913 263.953C374.821 233.78 343.699 202.578 307.758 179.307C304.762 177.362 301.7 175.463 298.65 173.66C256.997 148.958 213.231 138.801 175.424 145.064C104.52 156.804 61.5478 217.589 26.8346 273.639L26.3712 273.35C43.0436 246.433 63.4467 215.627 88.4102 191.267C115.271 165.047 143.704 149.757 175.333 144.517C213.268 138.236 257.165 148.416 298.93 173.181C301.984 174.989 305.057 176.894 308.058 178.838C344.049 202.141 375.191 233.359 405.303 263.552C408.413 266.672 411.519 269.785 414.63 272.894C475.909 334.062 534.25 386.857 592.991 434.296C694.981 516.945 794.952 579.642 890.137 620.644C977.101 658.108 1049.41 670.439 1117.7 659.459C1208.81 644.807 1290.64 585.707 1373.41 521.217L1381.88 514.631C1427.74 479.087 1466.78 450.635 1508.23 427.318C1556.98 399.896 1602.65 383.716 1647.85 377.846C1658.91 376.373 1670.42 375.51 1683.02 375.214C1714.77 374.472 1748.09 378.544 1782.05 387.312C1812.87 395.271 1845.29 407.39 1878.41 423.326C1932.69 449.445 1989.56 485.689 2057.39 537.388L2057.06 537.825C1959.18 463.219 1830.65 378.327 1696.77 375.735C1692.19 375.646 1687.63 375.655 1683.04 375.759C1670.46 376.056 1658.97 376.915 1647.93 378.388C1548.8 391.259 1465.68 450.379 1382.22 515.06L1373.74 521.646C1335.56 551.399 1294.72 582.554 1252.13 607.751C1204.27 636.067 1160.32 653.157 1117.79 659.996C1099.72 662.909 1081.48 664.182 1062.82 663.826Z" fill="url(#paint21_linear_1_9)"/>
<path d="M1025.64 655.438C1013.39 655.201 1000.97 654.323 988.318 652.809C952.123 648.473 914.962 638.994 874.709 623.838C824.334 604.866 771.946 578.452 718.99 545.328C671.867 515.85 622.639 480.005 572.684 438.792C515.916 392.176 457.316 338.234 393.54 273.888C390.704 271.029 387.874 268.16 385.044 265.296C354.428 234.298 322.767 202.239 286.505 177.937C283.505 175.926 280.444 173.95 277.396 172.066C236.136 146.53 192.445 134.631 154.367 138.569C84.6107 145.783 38.3221 198.01 -1.30795 253.379L-1.83097 253.007C14.9265 229.595 37.6546 199.833 64.861 177.336C92.9119 154.142 122.17 141.249 154.303 137.93C174.185 135.873 195.382 138.017 217.311 144.295C237.611 150.107 257.944 159.27 277.733 171.517C280.786 173.401 283.857 175.382 286.862 177.398C323.179 201.737 354.86 233.817 385.502 264.841C388.332 267.71 391.162 270.574 393.997 273.433C457.759 337.763 516.338 391.69 573.092 438.295C680.057 526.537 778.79 587.032 874.935 623.241C959.104 654.94 1034.57 662.652 1105.64 646.821C1197.79 626.291 1279.58 563.759 1358.68 503.287L1363.59 499.533C1366.51 497.31 1369.42 495.098 1372.33 492.896C1454.35 431.001 1544.43 372.566 1647.31 364.147C1658.57 363.223 1670.26 362.93 1683.05 363.223C1715.03 363.975 1748.41 369.582 1782.26 379.893C1813.24 389.334 1845.53 403 1878.25 420.509C1933.61 450.146 1991.22 491.013 2054.35 545.445L2053.94 545.932C1914.85 426.01 1793.52 366.459 1683.04 363.865C1670.26 363.562 1658.6 363.866 1647.36 364.786C1544.66 373.192 1454.67 431.573 1372.73 493.408C1369.82 495.605 1366.91 497.818 1363.99 500.04L1359.08 503.794C1320.16 533.548 1279.92 564.317 1237.87 590.217C1190.29 619.523 1147.08 638.243 1105.79 647.441C1079.42 653.314 1052.95 655.967 1025.64 655.438Z" fill="url(#paint22_linear_1_9)"/>
<path d="M985.798 648.936C944.991 648.146 903.106 640.682 859.495 626.521C808.543 609.974 755.266 584.701 701.136 551.391C653.021 521.787 604.47 486.281 552.713 442.846C497.253 396.561 440.093 343.06 372.824 274.476C370.315 271.914 367.805 269.347 365.29 266.78C334.105 234.898 301.86 201.936 265.231 176.546C262.233 174.464 259.168 172.411 256.127 170.456C215.245 144.091 171.618 130.455 133.289 132.058C60.6777 135.093 10.2667 184.844 -29.4756 233.109L-30.0426 232.639C-3.71295 200.658 18.2917 179.294 41.2973 163.369C70.4833 143.169 100.562 132.684 133.258 131.318C153.228 130.481 174.401 133.65 196.197 140.725C216.508 147.323 236.808 157.112 256.526 169.831C259.578 171.792 262.648 173.85 265.656 175.937C302.34 201.364 334.61 234.357 365.821 266.26C368.33 268.827 370.84 271.394 373.355 273.951C440.603 342.519 497.743 396 553.188 442.274C663.059 534.472 763.325 594.508 859.728 625.811C942.426 652.664 1018.92 655.4 1093.57 634.163C1178.93 609.882 1256.45 551.315 1331.42 494.673C1338.77 489.126 1346.36 483.384 1353.78 477.823C1356.81 475.552 1359.84 473.306 1362.78 471.14C1413.88 433.556 1457.12 407.098 1498.88 387.881C1550.09 364.309 1598.47 352.057 1646.76 350.422C1658.08 350.04 1669.95 350.295 1683.07 351.207C1715.29 353.442 1748.72 360.579 1782.45 372.418C1813.58 383.345 1845.76 398.564 1878.07 417.64C1934.01 450.664 1992.3 496.366 2051.3 553.477L2050.79 554.007C1920.4 427.81 1796.67 359.825 1683.02 351.94C1669.92 351.029 1658.07 350.774 1646.78 351.157C1535.61 354.923 1436.84 417.569 1363.21 471.73C1360.28 473.896 1357.26 476.141 1354.22 478.413C1346.81 483.974 1339.21 489.71 1331.86 495.263C1256.84 551.945 1179.26 610.556 1093.77 634.871C1058.35 644.957 1022.51 649.647 985.798 648.936Z" fill="url(#paint23_linear_1_9)"/>
<path d="M946.08 644.333C912.653 643.686 878.491 638.615 844.291 629.209C792.696 615.021 738.526 590.877 683.297 557.449C634.719 528.05 585.472 491.893 532.746 446.915C478.745 401.122 423.038 348.129 352.119 275.079C349.985 272.882 347.85 270.679 345.716 268.476C313.912 235.649 281.017 201.711 243.973 175.176C240.976 173.022 237.912 170.898 234.867 168.861C194.353 141.688 150.811 126.315 112.262 125.569C112.247 125.569 112.237 125.568 112.221 125.568C36.5358 124.123 -16.1085 168.886 -57.6286 212.859L-58.2343 212.287C-30.9447 183.383 -6.80005 163.402 17.7537 149.408C48.0091 132.166 78.9179 124.092 112.238 124.727C112.253 124.727 112.268 124.728 112.279 124.728C132.317 125.116 153.45 129.303 175.098 137.171C195.419 144.559 215.681 154.985 235.334 168.162C238.384 170.204 241.458 172.333 244.46 174.487C281.565 201.064 314.484 235.033 346.314 267.88C348.448 270.083 350.582 272.286 352.717 274.484C423.616 347.513 479.303 400.496 533.283 446.268C645.663 542.134 747.468 601.705 844.51 628.397C925.893 650.779 1003.41 648.528 1081.5 621.52C1160.24 594.286 1233.21 539.328 1303.76 486.179C1316.98 476.228 1330.64 465.934 1343.96 456.128C1347.1 453.824 1350.22 451.559 1353.23 449.395C1403.9 413.016 1450.02 386.435 1494.21 368.121C1519.33 357.708 1544.4 349.796 1568.69 344.603C1594.67 339.054 1620.75 336.398 1646.22 336.713C1657.62 336.857 1669.68 337.667 1683.1 339.201C1745.91 346.383 1811.45 371.802 1877.9 414.756C1934.84 451.557 1992.16 500.937 2048.27 561.53L2047.65 562.094C1962.43 470.067 1829.99 356.841 1683.01 340.031C1669.62 338.502 1657.58 337.693 1646.21 337.544C1555.18 336.413 1462.24 372.172 1353.71 450.067C1350.71 452.232 1347.6 454.496 1344.46 456.796C1331.14 466.597 1317.48 476.886 1304.27 486.841C1233.66 540.03 1160.64 595.023 1081.77 622.306C1042.34 635.945 1002.14 643.339 962.267 644.29C956.896 644.425 951.497 644.438 946.08 644.333Z" fill="url(#paint24_linear_1_9)"/>
<path d="M907.586 641.553C881.437 641.047 855.172 637.821 829.092 631.892C802.093 625.756 774.2 616.62 746.185 604.744C719.906 593.6 692.746 579.717 665.464 563.476C616.328 534.224 566.379 497.422 512.774 450.964C446.917 394.25 384.133 330.52 331.409 275.662L326.342 270.384C293.848 236.535 260.246 201.533 222.709 173.79C219.709 171.565 216.647 169.365 213.603 167.256C172.817 138.85 130.472 122.184 91.144 119.062C29.0565 114.133 -25.5105 136.814 -85.7965 192.604L-86.4257 191.924C-57.8945 165.517 -32.27 147.568 -5.78925 135.427C25.4804 121.094 57.2091 115.438 91.218 118.136C111.345 119.734 132.463 124.94 153.994 133.606C174.31 141.784 194.544 152.852 214.133 166.492C217.181 168.605 220.249 170.811 223.259 173.041C260.861 200.836 294.488 235.864 327.007 269.739L332.074 275.017C384.788 329.86 447.552 393.569 513.379 450.262C628.006 549.602 731.344 608.714 829.293 630.983C909.533 649.223 988.078 641.996 1069.42 608.882C1141.74 579.444 1209.92 527.829 1275.85 477.91C1295.01 463.404 1314.82 448.411 1334.14 434.434C1337.33 432.135 1340.54 429.852 1343.67 427.649C1394.9 391.73 1442.61 365.791 1489.52 348.356C1515.34 338.757 1541.18 331.747 1566.31 327.513C1592.91 323.032 1619.61 321.515 1645.68 323.003C1657.22 323.66 1669.47 325.034 1683.13 327.2C1746.73 337.283 1812.19 365.765 1877.72 411.847C1935.38 452.403 1991.74 505.471 2045.22 569.577L2044.51 570.169C1929.97 432.879 1801.57 346.915 1682.98 328.115C1669.35 325.955 1657.13 324.586 1645.62 323.925C1550.78 318.515 1452.19 352.686 1344.2 428.404C1341.07 430.607 1337.87 432.885 1334.68 435.184C1315.37 449.151 1295.56 464.144 1276.41 478.644C1210.43 528.599 1142.19 580.253 1069.76 609.735C1029.39 626.165 988.85 636.362 949.252 640.03C935.437 641.318 921.524 641.823 907.586 641.553Z" fill="url(#paint25_linear_1_9)"/>
<path d="M871.442 640.354C852.199 639.981 833.041 638.056 813.893 634.575C786.495 629.604 758.156 621.331 729.663 609.987C702.985 599.365 675.387 585.744 647.641 569.494C597.876 540.352 547.231 502.909 492.807 455.028C427.072 397.552 364.342 332.615 310.699 276.255L307.216 272.594C273.954 237.623 239.559 201.458 201.446 172.41C198.442 170.114 195.381 167.842 192.344 165.652C151.859 136.415 109.573 118.053 70.0613 112.562C5.95043 103.648 -52.5219 122.648 -113.965 172.354L-114.607 171.556C-85.271 147.826 -57.3772 131.43 -29.3218 121.43C2.9021 109.946 35.4557 106.712 70.2034 111.545C90.3991 114.353 111.492 120.573 132.895 130.032C153.201 139.005 173.403 150.709 192.941 164.822C195.988 167.017 199.059 169.295 202.068 171.596C240.246 200.697 274.672 236.888 307.964 271.889L311.447 275.551C365.075 331.89 427.785 396.812 493.49 454.256C610.188 556.941 715.055 615.592 814.081 633.569C893.365 647.962 972.94 635.753 1057.35 596.25C1123.45 565.319 1186.69 516.836 1247.86 469.955C1272.96 450.706 1298.93 430.805 1324.34 412.745C1327.58 410.452 1330.88 408.151 1334.13 405.909C1385.39 370.771 1436.1 344.758 1484.86 328.587C1511.38 319.791 1537.99 313.679 1563.94 310.424C1591.17 307.005 1618.5 306.627 1645.15 309.3C1656.87 310.475 1669.31 312.408 1683.17 315.205C1747.54 328.198 1812.95 359.733 1877.56 408.928C1907.07 431.396 1936.37 457.572 1964.62 486.735C1991.49 514.465 2017.59 545.055 2042.19 577.645L2041.37 578.261C1932.44 433.947 1805.16 340.882 1682.97 316.211C1669.14 313.419 1656.73 311.492 1645.05 310.322C1545.44 300.338 1443.93 331.878 1334.71 406.757C1331.46 408.998 1328.17 411.295 1324.93 413.582C1299.53 431.633 1273.58 451.528 1248.48 470.772C1187.27 517.689 1123.98 566.201 1057.79 597.181C993.549 627.235 932.099 641.529 871.442 640.354Z" fill="url(#paint26_linear_1_9)"/>
<path d="M838.553 640.395C825.277 640.138 812.022 639.091 798.705 637.263C770.912 633.442 742.123 626.022 713.15 615.214C686.065 605.11 658.034 591.75 629.824 575.501C579.379 546.443 528.033 508.37 472.845 459.092C410.43 403.7 350.735 341.284 289.994 276.849L288.425 275.187C254.285 238.96 218.981 201.503 180.178 171.029C177.17 168.662 174.11 166.313 171.075 164.052C130.856 133.969 88.6335 113.915 48.9737 106.056C-18.1469 92.7601 -78.8747 107.389 -142.143 152.109L-142.788 151.194C-112.27 129.623 -82.8466 115.306 -52.849 107.424C-19.7256 98.725 13.6528 97.9183 49.1887 104.959C89.0111 112.847 131.39 132.975 171.745 163.158C174.785 165.424 177.855 167.778 180.868 170.151C219.737 200.677 255.065 238.165 289.235 274.422L290.804 276.084C351.531 340.493 411.205 402.894 473.581 458.25C592.215 564.179 698.609 622.37 798.854 636.15C877.372 646.944 957.976 629.758 1045.27 583.607C1105.36 551.836 1163.58 506.355 1219.89 462.372C1250.9 438.145 1282.97 413.096 1314.53 391.04C1317.86 388.724 1321.24 386.409 1324.58 384.154C1433.97 310.762 1541.65 280.963 1644.63 295.585C1656.57 297.28 1669.2 299.773 1683.21 303.2C1748.35 319.124 1813.68 353.701 1877.4 405.973C1906.86 430.143 1935.81 458.04 1963.42 488.889C1990.03 518.606 2015.51 551.178 2039.16 585.697L2038.23 586.332C1934.63 435.131 1808.45 334.97 1682.95 304.291C1668.96 300.874 1656.38 298.387 1644.47 296.699C1541.78 282.118 1434.36 311.856 1325.21 385.089C1321.87 387.339 1318.49 389.649 1315.17 391.96C1283.63 413.996 1251.57 439.04 1220.58 463.252C1164.24 507.265 1105.97 552.781 1045.8 584.596C1002.91 607.268 962.845 622.608 923.3 631.503C894.486 637.986 866.481 640.936 838.553 640.395Z" fill="url(#paint27_linear_1_9)"/>
<path d="M807.884 641.341C799.765 641.184 791.648 640.716 783.516 639.946C755.319 637.264 726.085 630.692 696.633 620.415C669.14 610.823 640.666 597.72 612.002 581.478C560.842 552.488 508.789 513.783 452.873 463.141C389.125 405.744 328.235 340.552 269.353 277.514L269.283 277.442C234.51 240.199 198.554 201.689 158.914 169.644C155.902 167.205 152.839 164.78 149.81 162.442C109.817 131.502 67.6581 109.752 27.8857 99.545C-41.371 81.7723 -106.206 92.3396 -170.322 131.858L-170.959 130.826C-139.242 111.277 -108.293 99.0391 -76.356 93.4071C-42.3725 87.4171 -8.17446 89.0377 28.1888 98.3732C68.1185 108.619 110.434 130.443 150.558 161.488C153.592 163.831 156.665 166.256 159.681 168.705C199.382 200.803 235.373 239.344 270.176 276.618L270.246 276.69C329.113 339.713 389.983 404.884 453.691 462.249C574.165 571.349 682.093 629.081 783.636 638.74C862.666 646.261 941.968 624.727 1033.2 570.984C1087.51 538.984 1140.68 496.409 1192.11 455.237C1228.91 425.769 1266.98 395.294 1304.72 369.351C1308.14 367.011 1311.61 364.677 1315.04 362.419C1368.14 327.525 1422.14 302.835 1475.53 289.028C1532.54 274.291 1589.25 271.887 1644.1 281.891C1656.32 284.121 1669.13 287.168 1683.26 291.215C1716.64 300.768 1750.37 315.405 1783.5 334.717C1815.24 353.216 1846.78 376.192 1877.25 403.018C1906.63 428.889 1935.22 458.508 1962.22 491.058C1988.51 522.747 2013.37 557.305 2036.12 593.77L2035.09 594.413C1937.96 438.729 1809.6 328.645 1682.92 292.386C1668.83 288.351 1656.06 285.309 1643.88 283.09C1536.93 263.589 1426.52 290.623 1315.71 363.436C1312.29 365.695 1308.82 368.024 1305.41 370.359C1267.7 396.272 1229.66 426.731 1192.86 456.19C1141.4 497.392 1088.2 539.992 1033.81 572.036C989.957 597.871 949.566 615.927 910.33 627.24C875.294 637.329 841.56 641.993 807.884 641.341Z" fill="url(#paint28_linear_1_9)"/>
<path d="M779.108 643.027C775.515 642.958 771.923 642.827 768.333 642.63C739.726 641.077 710.048 635.348 680.122 625.602C652.216 616.517 623.303 603.68 594.185 587.45C567.317 572.476 539.489 554.165 511.465 533.035C485.999 513.832 459.571 491.683 432.907 467.205C372.671 412.191 314.969 349.809 259.165 289.482C255.634 285.666 252.104 281.85 248.578 278.035C215.605 242.402 178.237 202.015 137.651 168.264C134.635 165.753 131.574 163.257 128.551 160.843C88.7336 129.013 46.6328 105.567 6.79826 93.0393C-65.5383 70.2873 -132.692 76.364 -198.505 111.613L-199.125 110.459C-132.988 75.0327 -65.5017 68.9267 7.18948 91.7927C47.176 104.369 89.4283 127.895 129.366 159.824C132.399 162.243 135.47 164.744 138.491 167.26C179.142 201.069 216.545 241.488 249.543 277.151C253.074 280.962 256.6 284.777 260.13 288.598C315.915 348.904 373.596 411.266 433.792 466.243C556.036 578.467 665.487 635.734 768.404 641.326C847.058 645.597 927.351 619.234 1021.11 558.352C1069.88 526.678 1118.05 486.967 1164.62 448.562C1207.08 413.559 1250.97 377.365 1294.91 347.652C1298.42 345.288 1301.98 342.936 1305.49 340.669C1359.65 305.79 1415.29 281.754 1470.87 269.238C1529.25 256.094 1587.35 255.735 1643.57 268.182C1656.1 270.959 1669.1 274.565 1683.3 279.215C1716.93 290.22 1750.72 306.332 1783.74 327.105C1815.58 347.13 1846.99 371.664 1877.12 400.033C1906.4 427.605 1934.63 458.95 1961.03 493.201C1986.97 526.852 2011.21 563.397 2033.09 601.828L2031.95 602.474C1939.56 440.187 1812.33 322.82 1682.9 280.456C1668.74 275.823 1655.78 272.222 1643.29 269.457C1618.62 263.993 1593.56 261.03 1568.32 260.541C1481.55 258.861 1392.23 286.349 1306.2 341.763C1302.7 344.03 1299.15 346.373 1295.64 348.732C1251.75 378.405 1207.88 414.579 1165.45 449.567C1118.85 487.997 1070.66 527.733 1021.82 559.446C977.02 588.541 936.312 609.308 897.368 622.946C856.724 637.178 817.921 643.779 779.108 643.027Z" fill="url(#paint29_linear_1_9)"/>
<path d="M751.906 645.289C723.27 644.735 693.57 639.851 663.6 630.772C635.277 622.189 605.921 609.614 576.354 593.4C549.093 578.45 520.865 559.973 492.451 538.474C466.644 518.953 439.893 496.339 412.93 471.259C355.549 418.12 300.46 357.929 247.184 299.721C240.744 292.683 234.304 285.645 227.863 278.623C189.663 236.97 154.904 199.809 116.382 166.878C113.363 164.291 110.298 161.718 107.282 159.233C67.5843 126.483 25.5418 101.34 -14.3045 86.5228C-89.6844 58.4912 -159.158 60.0723 -226.698 91.3625L-227.291 90.0867C-193.554 74.4562 -158.582 66.1351 -123.343 65.3492C-88.2012 64.5665 -51.3481 71.245 -13.81 85.2069C26.178 100.078 68.3617 125.3 108.18 158.154C111.206 160.644 114.276 163.222 117.3 165.815C155.882 198.798 190.671 235.99 228.906 277.679C235.347 284.702 241.787 291.735 248.227 298.778C301.483 356.965 356.552 417.135 413.893 470.232C537.331 585.054 647.912 641.873 751.882 643.887C752.315 643.895 752.738 643.903 753.171 643.906C832.701 645.1 911.611 614.82 1009.03 545.719C1052.51 514.875 1095.74 478.021 1137.54 442.378C1185.45 401.541 1234.98 359.308 1285.1 325.953C1288.69 323.57 1292.34 321.204 1295.95 318.918C1351.22 283.995 1408.51 260.623 1466.22 249.448C1526.01 237.871 1585.51 239.563 1643.06 254.478C1655.94 257.817 1669.12 261.983 1683.36 267.219C1717.23 279.672 1751.09 297.254 1784 319.482C1815.91 341.039 1847.2 367.131 1876.99 397.038C1906.15 426.31 1934.03 459.392 1959.85 495.35C1985.41 530.951 2009.03 569.488 2030.06 609.895L2028.82 610.544C1940.93 441.708 1814.84 317.051 1682.87 268.54C1668.68 263.32 1655.54 259.171 1642.7 255.843C1529.39 226.47 1409.74 248.691 1296.7 320.11C1293.1 322.391 1289.46 324.752 1285.88 327.13C1235.83 360.441 1186.33 402.644 1138.46 443.456C1096.63 479.119 1053.37 515.998 1009.84 546.876C964.112 579.308 923.091 602.791 884.419 618.663C839.134 637.246 796.196 645.968 753.154 645.323C752.736 645.305 752.319 645.297 751.906 645.289Z" fill="url(#paint30_linear_1_9)"/>
<path d="M726.229 648.014C700.437 647.515 673.872 643.462 647.079 635.933C618.333 627.852 588.543 615.544 558.527 599.347C530.873 584.424 502.246 565.776 473.446 543.923C447.299 524.084 420.22 501.005 392.963 475.323C337.949 423.678 285.04 365.222 233.867 308.691C225.112 299.019 216.063 289.019 207.152 279.221C172.159 240.725 134.676 200.238 95.1136 165.492C92.0958 162.839 89.032 160.195 86.0126 157.628C46.3643 123.9 4.38014 97.0609 -35.4024 80.0068C-113.749 46.4219 -185.542 43.5124 -254.897 71.1171L-255.452 69.7248C-220.432 55.7863 -183.885 49.591 -146.824 51.3181C-110.868 52.9932 -73.1818 62.1809 -34.815 78.6315C5.10407 95.7443 47.2191 122.668 86.9829 156.49C90.0124 159.062 93.0813 161.711 96.1039 164.375C135.726 199.167 173.24 239.691 208.268 278.218C217.178 288.016 226.233 298.016 234.983 307.688C286.13 364.198 339.019 422.628 393.994 474.232C519.606 592.572 632.114 648.924 737.933 646.497C839.846 644.163 929.881 584.666 996.937 533.096C1035.37 503.536 1073.79 469.562 1110.95 436.699C1164.07 389.713 1219.02 341.13 1275.29 304.253C1278.97 301.847 1282.71 299.462 1286.4 297.168C1342.9 262.136 1401.84 239.392 1461.59 229.578C1522.87 219.513 1583.75 223.276 1642.54 240.775C1655.58 244.611 1668.95 249.336 1683.4 255.224C1717.52 269.12 1751.45 288.171 1784.26 311.846C1816.26 334.933 1847.42 362.582 1876.88 394.033C1905.9 425.011 1933.41 459.819 1958.66 497.494C1983.81 535.035 2006.82 575.568 2027.03 617.958L2025.67 618.605C1942.08 443.244 1817.13 311.304 1682.84 256.61C1668.44 250.744 1655.12 246.035 1642.12 242.209C1525.3 207.441 1402.58 226.89 1287.2 298.438C1283.52 300.727 1279.79 303.102 1276.12 305.503C1219.94 342.321 1165.04 390.868 1111.95 437.815C1074.77 470.692 1036.33 504.687 997.857 534.276C950.602 570.619 910.44 596.061 871.472 614.344C825.347 635.98 781.677 646.987 737.971 647.986C734.074 648.079 730.158 648.09 726.229 648.014Z" fill="url(#paint31_linear_1_9)"/>
<path d="M701.408 651.092C678.229 650.643 654.486 647.287 630.558 641.068C601.39 633.488 571.156 621.442 540.697 605.267C512.649 590.372 483.627 571.559 454.437 549.346C427.949 529.19 400.548 505.646 372.997 479.366C319.973 428.918 268.903 371.848 219.515 316.657C208.686 304.553 197.483 292.039 186.448 279.799C153.382 243.124 114.688 200.916 73.8455 164.096C70.8141 161.361 67.7518 158.641 64.7438 156.008C24.4931 120.744 -16.3005 92.9742 -56.5048 73.475C-136.57 34.6464 -212.804 27.0371 -283.096 50.851L-283.607 49.3422C-247.263 37.0251 -209.136 32.9609 -170.289 37.2665C-133.503 41.3386 -94.9881 53.0405 -55.8091 72.0406C-15.4736 91.6035 25.4358 119.447 65.7917 154.81C68.8047 157.448 71.8721 160.173 74.9085 162.914C115.811 199.786 154.54 242.03 187.631 278.731C198.666 290.971 209.869 303.49 220.703 315.594C270.071 370.759 321.116 427.808 374.095 478.21C499.564 597.883 616.852 655.373 722.696 649.072C824.222 643.034 912.191 580.668 984.849 520.458C1018.48 492.59 1052.25 461.538 1084.91 431.504C1143.02 378.063 1203.11 322.8 1265.48 282.544C1269.24 280.118 1273.07 277.72 1276.85 275.407C1334.54 240.271 1395.12 218.191 1456.93 209.788C1519.65 201.26 1581.92 207.074 1642.01 227.055C1655.34 231.458 1669.28 236.893 1683.44 243.213C1820.23 304.257 1944.35 443.782 2023.98 626.01L2022.52 626.65C1943.05 444.782 1819.22 305.553 1682.79 244.669C1668.68 238.37 1654.79 232.951 1641.5 228.57C1522.75 189.074 1393.54 206.19 1277.68 276.764C1273.9 279.067 1270.09 281.46 1266.34 283.876C1204.08 324.057 1144.04 379.276 1085.97 432.672C1053.3 462.715 1019.52 493.787 985.855 521.68C937.752 561.54 897.284 589.612 858.509 610.019C811.571 634.723 767.173 648.016 722.778 650.654C715.723 651.094 708.593 651.231 701.408 651.092Z" fill="url(#paint32_linear_1_9)"/>
<path d="M677.304 654.474C656.532 654.072 635.356 651.307 614.027 646.203C584.436 639.12 553.759 627.34 522.861 611.187C494.415 596.321 464.999 577.341 435.427 554.785C408.594 534.311 380.871 510.307 353.03 483.431C301.701 433.953 252.21 377.995 204.345 323.883C191.708 309.593 178.637 294.82 165.742 280.397C130.791 241.316 92.8905 200.01 52.5719 162.721C49.5417 159.92 46.4808 157.122 43.4694 154.408C3.08289 117.989 -37.6583 88.5689 -77.6127 66.9639C-160.342 22.2309 -238.97 10.0021 -311.305 30.6104L-311.768 28.9853C-274.052 18.2446 -234.345 16.3115 -193.75 23.2409C-156.102 29.6698 -116.753 43.8808 -76.804 65.4806C-36.7335 87.1491 4.11832 116.648 44.605 153.155C47.6215 155.875 50.6874 158.672 53.7226 161.479C94.0914 198.81 132.022 240.157 166.998 279.269C179.898 293.692 192.964 308.47 205.606 322.761C253.45 376.851 302.921 432.778 354.201 482.209C481.244 604.835 600.097 661.84 707.458 651.663C809.789 641.954 898.998 573.515 972.766 507.84C1002.21 481.767 1031.84 453.373 1060.5 425.918C1122.99 366.041 1187.62 304.126 1255.67 260.844C1259.51 258.405 1263.42 255.988 1267.31 253.662C1326.23 218.391 1388.46 196.981 1452.29 190.019C1516.46 183.018 1580.12 190.873 1641.5 213.362C1655.32 218.412 1669.46 224.421 1683.5 231.229C1822.28 298.48 1945.27 445.32 2020.95 634.089L2019.39 634.716C1943.86 446.332 1821.17 299.82 1682.77 232.749C1668.77 225.968 1654.69 219.975 1640.92 214.946C1518.66 170.146 1386.28 184.407 1268.19 255.107C1264.31 257.428 1260.41 259.84 1256.59 262.269C1188.67 305.457 1124.11 367.312 1061.68 427.134C1033.01 454.599 1003.36 483.003 973.899 509.096C925.177 552.471 884.418 583.184 845.628 605.742C797.922 633.486 752.781 649.058 707.625 653.338C697.634 654.297 687.517 654.672 677.304 654.474Z" fill="url(#paint33_linear_1_9)"/>
<path d="M653.812 658.103C635.277 657.744 616.442 655.483 597.491 651.323C567.473 644.736 536.357 633.223 505.014 617.097C476.176 602.259 446.365 583.119 416.413 560.214C389.234 539.427 361.193 514.958 333.058 487.49C283.192 438.8 235.065 383.745 188.52 330.505C135.231 269.544 80.126 206.513 22.2051 152.803C-107.705 32.3403 -229.4 -15.579 -339.498 10.3649L-339.908 8.62871C-309.414 1.4444 -277.491 -0.042996 -245.016 4.21068C-214.733 8.1823 -183.274 17.2341 -151.511 31.1199C-94.88 55.8773 -36.0201 96.3753 23.4234 151.496C81.4144 205.268 136.549 268.341 189.868 329.333C236.388 382.552 284.495 437.576 334.306 486.219C462.899 611.775 583.315 668.316 692.215 654.269C819.3 637.876 928.783 528.427 1034.66 422.583C1101.94 355.32 1171.51 285.771 1245.86 239.166C1279.94 217.806 1315.82 201.029 1352.51 189.3C1388.81 177.691 1426.15 170.94 1463.48 169.246C1500.81 167.547 1538.35 170.89 1575.06 179.177C1612.16 187.552 1648.67 201.041 1683.56 219.264C1718.44 237.483 1752.61 260.908 1785.14 288.895C1817.31 316.579 1848.08 348.906 1876.59 384.973C1905.1 421.034 1931.52 461.057 1955.12 503.926C1978.97 547.243 2000.1 593.761 2017.91 642.182L2016.24 642.797C1944.52 447.885 1822.96 294.088 1682.72 220.844C1621.15 188.685 1555.95 172.046 1490.6 170.781C1407.2 169.166 1323.56 192.568 1246.8 240.677C1172.62 287.174 1103.12 356.653 1035.91 423.846C982.775 476.966 927.828 531.895 871.497 574.333C841.169 597.182 812.809 614.742 784.803 628.011C753.364 642.906 723.153 652.079 692.436 656.037C679.756 657.667 666.854 658.356 653.812 658.103Z" fill="url(#paint34_linear_1_9)"/>
<defs>
<linearGradient id="paint0_linear_1_9" x1="1179.61" y1="44.9355" x2="1171.45" y2="465.957" gradientUnits="userSpaceOnUse">
<stop stop-color="#FF0000"/>
<stop offset="0.53125" stop-color="#FF0000" stop-opacity="0.55"/>
<stop offset="1" stop-color="#0057FF" stop-opacity="0.2"/>
</linearGradient>
<linearGradient id="paint1_linear_1_9" x1="1165.95" y1="73.161" x2="1158.51" y2="457.243" gradientUnits="userSpaceOnUse">
<stop stop-color="#FF0000"/>
<stop offset="0.53125" stop-color="#FF0000" stop-opacity="0.55"/>
<stop offset="1" stop-color="#0057FF" stop-opacity="0.2"/>
</linearGradient>
<linearGradient id="paint2_linear_1_9" x1="1152.22" y1="101.372" x2="1145.5" y2="448.523" gradientUnits="userSpaceOnUse">
<stop stop-color="#FF0000"/>
<stop offset="0.53125" stop-color="#FF0000" stop-opacity="0.55"/>
<stop offset="1" stop-color="#0057FF" stop-opacity="0.2"/>
</linearGradient>
<linearGradient id="paint3_linear_1_9" x1="1138.44" y1="129.583" x2="1132.43" y2="439.96" gradientUnits="userSpaceOnUse">
<stop stop-color="#FF0000"/>
<stop offset="0.53125" stop-color="#FF0000" stop-opacity="0.55"/>
<stop offset="1" stop-color="#0057FF" stop-opacity="0.2"/>
</linearGradient>
<linearGradient id="paint4_linear_1_9" x1="1124.69" y1="154.473" x2="1119.32" y2="431.549" gradientUnits="userSpaceOnUse">
<stop stop-color="#FF0000"/>
<stop offset="0.53125" stop-color="#FF0000" stop-opacity="0.55"/>
<stop offset="1" stop-color="#0057FF" stop-opacity="0.2"/>
</linearGradient>
<linearGradient id="paint5_linear_1_9" x1="1111.11" y1="171.416" x2="1106.23" y2="423.352" gradientUnits="userSpaceOnUse">
<stop stop-color="#FF0000"/>
<stop offset="0.53125" stop-color="#FF0000" stop-opacity="0.55"/>
<stop offset="1" stop-color="#0057FF" stop-opacity="0.2"/>
</linearGradient>
<linearGradient id="paint6_linear_1_9" x1="1097.53" y1="188.131" x2="1093.12" y2="415.471" gradientUnits="userSpaceOnUse">
<stop stop-color="#FF0000"/>
<stop offset="0.53125" stop-color="#FF0000" stop-opacity="0.55"/>
<stop offset="1" stop-color="#0057FF" stop-opacity="0.2"/>
</linearGradient>
<linearGradient id="paint7_linear_1_9" x1="1084.01" y1="201.683" x2="1080.01" y2="408.08" gradientUnits="userSpaceOnUse">
<stop stop-color="#FF0000"/>
<stop offset="0.53125" stop-color="#FF0000" stop-opacity="0.55"/>
<stop offset="1" stop-color="#0057FF" stop-opacity="0.2"/>
</linearGradient>
<linearGradient id="paint8_linear_1_9" x1="1070.94" y1="192.546" x2="1066.87" y2="402.529" gradientUnits="userSpaceOnUse">
<stop stop-color="#FF0000"/>
<stop offset="0.53125" stop-color="#FF0000" stop-opacity="0.55"/>
<stop offset="1" stop-color="#0057FF" stop-opacity="0.2"/>
</linearGradient>
<linearGradient id="paint9_linear_1_9" x1="1057.87" y1="183.231" x2="1053.49" y2="409.259" gradientUnits="userSpaceOnUse">
<stop stop-color="#FF0000"/>
<stop offset="0.53125" stop-color="#FF0000" stop-opacity="0.55"/>
<stop offset="1" stop-color="#0057FF" stop-opacity="0.2"/>
</linearGradient>
<linearGradient id="paint10_linear_1_9" x1="1044.8" y1="173.875" x2="1040.1" y2="416.499" gradientUnits="userSpaceOnUse">
<stop stop-color="#FF0000"/>
<stop offset="0.53125" stop-color="#FF0000" stop-opacity="0.55"/>
<stop offset="1" stop-color="#0057FF" stop-opacity="0.2"/>
</linearGradient>
<linearGradient id="paint11_linear_1_9" x1="1031.73" y1="164.478" x2="1026.69" y2="424.402" gradientUnits="userSpaceOnUse">
<stop stop-color="#FF0000"/>
<stop offset="0.53125" stop-color="#FF0000" stop-opacity="0.55"/>
<stop offset="1" stop-color="#0057FF" stop-opacity="0.2"/>
</linearGradient>
<linearGradient id="paint12_linear_1_9" x1="1018.68" y1="154.991" x2="1013.3" y2="433.299" gradientUnits="userSpaceOnUse">
<stop stop-color="#FF0000"/>
<stop offset="0.53125" stop-color="#FF0000" stop-opacity="0.55"/>
<stop offset="1" stop-color="#0057FF" stop-opacity="0.2"/>
</linearGradient>
<linearGradient id="paint13_linear_1_9" x1="1005.61" y1="145.448" x2="999.745" y2="448.377" gradientUnits="userSpaceOnUse">
<stop stop-color="#FF0000"/>
<stop offset="0.53125" stop-color="#FF0000" stop-opacity="0.55"/>
<stop offset="1" stop-color="#0057FF" stop-opacity="0.2"/>
</linearGradient>
<linearGradient id="paint14_linear_1_9" x1="992.556" y1="135.889" x2="986.204" y2="463.914" gradientUnits="userSpaceOnUse">
<stop stop-color="#FF0000"/>
<stop offset="0.53125" stop-color="#FF0000" stop-opacity="0.55"/>
<stop offset="1" stop-color="#0057FF" stop-opacity="0.2"/>
</linearGradient>
<linearGradient id="paint15_linear_1_9" x1="979.496" y1="126.305" x2="972.658" y2="479.456" gradientUnits="userSpaceOnUse">
<stop stop-color="#FF0000"/>
<stop offset="0.53125" stop-color="#FF0000" stop-opacity="0.55"/>
<stop offset="1" stop-color="#0057FF" stop-opacity="0.2"/>
</linearGradient>
<linearGradient id="paint16_linear_1_9" x1="966.445" y1="116.707" x2="959.035" y2="499.356" gradientUnits="userSpaceOnUse">
<stop stop-color="#FF0000"/>
<stop offset="0.53125" stop-color="#FF0000" stop-opacity="0.55"/>
<stop offset="1" stop-color="#0057FF" stop-opacity="0.2"/>
</linearGradient>
<linearGradient id="paint17_linear_1_9" x1="953.401" y1="107.094" x2="945.277" y2="526.636" gradientUnits="userSpaceOnUse">
<stop stop-color="#FF0000"/>
<stop offset="0.53125" stop-color="#FF0000" stop-opacity="0.55"/>
<stop offset="1" stop-color="#0057FF" stop-opacity="0.2"/>
</linearGradient>
<linearGradient id="paint18_linear_1_9" x1="940.34" y1="97.4412" x2="931.486" y2="554.684" gradientUnits="userSpaceOnUse">
<stop stop-color="#FF0000"/>
<stop offset="0.53125" stop-color="#FF0000" stop-opacity="0.55"/>
<stop offset="1" stop-color="#0057FF" stop-opacity="0.2"/>
</linearGradient>
<linearGradient id="paint19_linear_1_9" x1="1077.97" y1="168.504" x2="1067.98" y2="684.074" gradientUnits="userSpaceOnUse">
<stop stop-color="#FF0000"/>
<stop offset="0.53125" stop-color="#FF0000"/>
<stop offset="1" stop-color="#0057FF" stop-opacity="0.2"/>
</linearGradient>
<linearGradient id="paint20_linear_1_9" x1="1062.3" y1="163.991" x2="1052.45" y2="672.985" gradientUnits="userSpaceOnUse">
<stop stop-color="#FF0000"/>
<stop offset="0.53125" stop-color="#FF0000"/>
<stop offset="1" stop-color="#0057FF" stop-opacity="0.2"/>
</linearGradient>
<linearGradient id="paint21_linear_1_9" x1="1046.65" y1="159.113" x2="1036.89" y2="663.324" gradientUnits="userSpaceOnUse">
<stop stop-color="#FF0000"/>
<stop offset="0.53125" stop-color="#FF0000"/>
<stop offset="1" stop-color="#0057FF" stop-opacity="0.2"/>
</linearGradient>
<linearGradient id="paint22_linear_1_9" x1="1031.01" y1="153.834" x2="1021.3" y2="655.354" gradientUnits="userSpaceOnUse">
<stop stop-color="#FF0000"/>
<stop offset="0.53125" stop-color="#FF0000"/>
<stop offset="1" stop-color="#0057FF" stop-opacity="0.2"/>
</linearGradient>
<linearGradient id="paint23_linear_1_9" x1="1015.37" y1="148.117" x2="1005.67" y2="649.321" gradientUnits="userSpaceOnUse">
<stop stop-color="#FF0000"/>
<stop offset="0.53125" stop-color="#FF0000"/>
<stop offset="1" stop-color="#0057FF" stop-opacity="0.2"/>
</linearGradient>
<linearGradient id="paint24_linear_1_9" x1="999.76" y1="141.913" x2="990.015" y2="645.184" gradientUnits="userSpaceOnUse">
<stop stop-color="#FF0000"/>
<stop offset="0.53125" stop-color="#FF0000"/>
<stop offset="1" stop-color="#0057FF" stop-opacity="0.2"/>
</linearGradient>
<linearGradient id="paint25_linear_1_9" x1="984.155" y1="135.052" x2="974.322" y2="642.846" gradientUnits="userSpaceOnUse">
<stop stop-color="#FF0000"/>
<stop offset="0.53125" stop-color="#FF0000"/>
<stop offset="1" stop-color="#0057FF" stop-opacity="0.2"/>
</linearGradient>
<linearGradient id="paint26_linear_1_9" x1="968.579" y1="127.327" x2="958.612" y2="642.042" gradientUnits="userSpaceOnUse">
<stop stop-color="#FF0000"/>
<stop offset="0.53125" stop-color="#FF0000"/>
<stop offset="1" stop-color="#0057FF" stop-opacity="0.2"/>
</linearGradient>
<linearGradient id="paint27_linear_1_9" x1="953.023" y1="118.589" x2="942.88" y2="642.415" gradientUnits="userSpaceOnUse">
<stop stop-color="#FF0000"/>
<stop offset="0.53125" stop-color="#FF0000"/>
<stop offset="1" stop-color="#0057FF" stop-opacity="0.2"/>
</linearGradient>
<linearGradient id="paint28_linear_1_9" x1="937.491" y1="108.687" x2="927.132" y2="643.65" gradientUnits="userSpaceOnUse">
<stop stop-color="#FF0000"/>
<stop offset="0.53125" stop-color="#FF0000"/>
<stop offset="1" stop-color="#0057FF" stop-opacity="0.2"/>
</linearGradient>
<linearGradient id="paint29_linear_1_9" x1="921.989" y1="97.5669" x2="911.377" y2="645.588" gradientUnits="userSpaceOnUse">
<stop stop-color="#FF0000"/>
<stop offset="0.53125" stop-color="#FF0000"/>
<stop offset="1" stop-color="#0057FF" stop-opacity="0.2"/>
</linearGradient>
<linearGradient id="paint30_linear_1_9" x1="906.516" y1="85.075" x2="895.614" y2="648.082" gradientUnits="userSpaceOnUse">
<stop stop-color="#FF0000"/>
<stop offset="0.53125" stop-color="#FF0000"/>
<stop offset="1" stop-color="#0057FF" stop-opacity="0.2"/>
</linearGradient>
<linearGradient id="paint31_linear_1_9" x1="891.064" y1="71.3191" x2="879.84" y2="650.989" gradientUnits="userSpaceOnUse">
<stop stop-color="#FF0000"/>
<stop offset="0.53125" stop-color="#FF0000"/>
<stop offset="1" stop-color="#0057FF" stop-opacity="0.2"/>
</linearGradient>
<linearGradient id="paint32_linear_1_9" x1="875.633" y1="56.3851" x2="864.056" y2="654.241" gradientUnits="userSpaceOnUse">
<stop stop-color="#FF0000"/>
<stop offset="0.53125" stop-color="#FF0000"/>
<stop offset="1" stop-color="#0057FF" stop-opacity="0.2"/>
</linearGradient>
<linearGradient id="paint33_linear_1_9" x1="860.229" y1="40.4469" x2="848.275" y2="657.785" gradientUnits="userSpaceOnUse">
<stop stop-color="#FF0000"/>
<stop offset="0.53125" stop-color="#FF0000"/>
<stop offset="1" stop-color="#0057FF" stop-opacity="0.2"/>
</linearGradient>
<linearGradient id="paint34_linear_1_9" x1="844.845" y1="23.5931" x2="832.492" y2="661.563" gradientUnits="userSpaceOnUse">
<stop stop-color="#FF0000"/>
<stop offset="0.53125" stop-color="#FF0000"/>
<stop offset="1" stop-color="#0057FF" stop-opacity="0.2"/>
</linearGradient>
</defs>
</svg>
