<svg width="35" height="35" viewBox="0 0 35 35" fill="none" xmlns="http://www.w3.org/2000/svg">
<g clip-path="url(#clip0_1_89)">
<g filter="url(#filter0_d_1_89)">
<path d="M30.5477 12.1116C30.533 11.0071 30.3262 9.91354 29.9366 8.87991C29.5988 8.00805 29.0828 7.21624 28.4217 6.55508C27.7605 5.89392 26.9687 5.37794 26.0969 5.04012C25.0765 4.6571 23.9986 4.44999 22.9089 4.42762C21.506 4.36491 21.0612 4.34741 17.5 4.34741C13.9387 4.34741 13.4823 4.34741 12.0896 4.42762C11.0004 4.45016 9.92299 4.65726 8.90311 5.04012C8.03111 5.37771 7.23918 5.8936 6.57799 6.55479C5.9168 7.21598 5.4009 8.00791 5.06331 8.87991C4.67953 9.89948 4.47287 10.9772 4.45227 12.0664C4.38956 13.4707 4.37061 13.9155 4.37061 17.4768C4.37061 21.038 4.37061 21.493 4.45227 22.8872C4.47415 23.978 4.67977 25.0543 5.06331 26.0766C5.40147 26.9483 5.91775 27.7399 6.57916 28.4008C7.24057 29.0617 8.03257 29.5774 8.90456 29.9149C9.92165 30.3133 10.9993 30.5353 12.091 30.5712C13.4954 30.6339 13.9402 30.6528 17.5014 30.6528C21.0627 30.6528 21.5191 30.6528 22.9119 30.5712C24.0015 30.5497 25.0795 30.3431 26.0998 29.9601C26.9714 29.6219 27.763 29.1058 28.4241 28.4447C29.0852 27.7836 29.6014 26.992 29.9396 26.1203C30.3231 25.0995 30.5287 24.0232 30.5506 22.931C30.6133 21.528 30.6323 21.0832 30.6323 17.5205C30.6294 13.9593 30.6294 13.5072 30.5477 12.1116ZM17.4912 24.2114C13.7666 24.2114 10.7494 21.1941 10.7494 17.4695C10.7494 13.7449 13.7666 10.7276 17.4912 10.7276C19.2793 10.7276 20.9941 11.4379 22.2585 12.7023C23.5228 13.9666 24.2331 15.6814 24.2331 17.4695C24.2331 19.2576 23.5228 20.9724 22.2585 22.2367C20.9941 23.5011 19.2793 24.2114 17.4912 24.2114ZM24.5014 12.0503C23.6308 12.0503 22.9294 11.3474 22.9294 10.4782C22.9294 10.2719 22.97 10.0676 23.049 9.87692C23.1279 9.68627 23.2437 9.51304 23.3896 9.36713C23.5355 9.22122 23.7087 9.10547 23.8994 9.0265C24.09 8.94754 24.2944 8.90689 24.5007 8.90689C24.7071 8.90689 24.9114 8.94754 25.102 9.0265C25.2927 9.10547 25.4659 9.22122 25.6118 9.36713C25.7577 9.51304 25.8735 9.68627 25.9525 9.87692C26.0314 10.0676 26.0721 10.2719 26.0721 10.4782C26.0721 11.3474 25.3691 12.0503 24.5014 12.0503Z" fill="#FF0C0C" fill-opacity="0.78"/>
</g>
<g filter="url(#filter1_d_1_89)">
<path d="M17.4912 21.8488C19.9099 21.8488 21.8706 19.8881 21.8706 17.4695C21.8706 15.0508 19.9099 13.0901 17.4912 13.0901C15.0725 13.0901 13.1118 15.0508 13.1118 17.4695C13.1118 19.8881 15.0725 21.8488 17.4912 21.8488Z" fill="#FF0C0C" fill-opacity="0.78"/>
</g>
</g>
<defs>
<filter id="filter0_d_1_89" x="-3.62939" y="-3.65259" width="42.2617" height="42.3054" filterUnits="userSpaceOnUse" color-interpolation-filters="sRGB">
<feFlood flood-opacity="0" result="BackgroundImageFix"/>
<feColorMatrix in="SourceAlpha" type="matrix" values="0 0 0 0 0 0 0 0 0 0 0 0 0 0 0 0 0 0 127 0" result="hardAlpha"/>
<feOffset/>
<feGaussianBlur stdDeviation="4"/>
<feColorMatrix type="matrix" values="0 0 0 0 1 0 0 0 0 0.0458333 0 0 0 0 0.0458333 0 0 0 0.54 0"/>
<feBlend mode="normal" in2="BackgroundImageFix" result="effect1_dropShadow_1_89"/>
<feBlend mode="normal" in="SourceGraphic" in2="effect1_dropShadow_1_89" result="shape"/>
</filter>
<filter id="filter1_d_1_89" x="-0.888184" y="-0.909912" width="36.7588" height="36.7588" filterUnits="userSpaceOnUse" color-interpolation-filters="sRGB">
<feFlood flood-opacity="0" result="BackgroundImageFix"/>
<feColorMatrix in="SourceAlpha" type="matrix" values="0 0 0 0 0 0 0 0 0 0 0 0 0 0 0 0 0 0 127 0" result="hardAlpha"/>
<feOffset/>
<feGaussianBlur stdDeviation="7"/>
<feColorMatrix type="matrix" values="0 0 0 0 0 0 0 0 0 0 0 0 0 0 0 0 0 0 0.04 0"/>
<feBlend mode="normal" in2="BackgroundImageFix" result="effect1_dropShadow_1_89"/>
<feBlend mode="normal" in="SourceGraphic" in2="effect1_dropShadow_1_89" result="shape"/>
</filter>
<clipPath id="clip0_1_89">
<rect width="35" height="35" fill="white"/>
</clipPath>
</defs>
</svg>
