<svg width="118" height="103" viewBox="0 0 118 103" fill="none" xmlns="http://www.w3.org/2000/svg">
<g id="Vector" filter="url(#filter0_d_1_87)">
<path fill-rule="evenodd" clip-rule="evenodd" d="M58.6307 63.8428H61.0559C61.0559 63.8428 61.7835 63.7107 62.1473 63.3143C62.5111 62.9178 62.5111 62.125 62.5111 62.125C62.5111 62.125 62.5111 58.6893 63.9662 58.1607C65.4213 57.6321 67.3615 61.5964 69.3017 63.05C70.7568 64.2393 71.8481 63.975 71.8481 63.975L77.1836 63.8428C77.1836 63.8428 79.9726 63.7107 78.6387 61.2C78.5175 61.0678 77.9112 59.4821 74.6371 56.1786C71.2418 52.7428 71.7269 53.4036 75.7285 47.4571C78.1537 43.8893 79.1238 41.775 78.8812 40.7179C78.6387 39.7929 76.8198 40.0571 76.8198 40.0571H70.7568C70.7568 40.0571 70.2717 39.925 70.0292 40.1893C69.6654 40.4536 69.5442 40.85 69.5442 40.85C69.5442 40.85 68.5741 43.625 67.3615 46.0036C64.6938 50.8928 63.6024 51.1571 63.2386 50.8928C62.2685 50.2321 62.5111 47.9857 62.5111 46.5321C62.5111 41.775 63.2386 39.7929 61.1772 39.2643C60.5709 39.1321 60.0859 39 58.3882 39C56.2055 39 54.3866 39 53.4165 39.5286C52.689 39.925 52.2039 40.7179 52.5677 40.7179C52.9315 40.7179 53.9016 40.9821 54.3866 41.6429C54.8717 42.8321 54.8717 44.8143 54.8717 44.8143C54.8717 44.8143 55.2354 50.4964 54.0228 51.1571C53.174 51.6857 52.0827 50.6286 49.6575 46.1357C48.4448 43.8893 47.4748 41.2464 47.4748 41.2464C47.4748 41.2464 47.3535 40.7179 46.9897 40.4536C46.6259 40.1893 46.0196 40.0571 46.0196 40.0571H40.3204C40.3204 40.0571 39.4716 40.0571 39.1078 40.4536C38.8653 40.85 39.1078 41.5107 39.1078 41.5107C39.1078 41.5107 43.5944 52.875 48.6874 58.6893C53.4165 64.2393 58.6307 63.8428 58.6307 63.8428Z" fill="#FF0C0C" fill-opacity="0.78"/>
</g>
<defs>
<filter id="filter0_d_1_87" x="0" y="0" width="118" height="103" filterUnits="userSpaceOnUse" color-interpolation-filters="sRGB">
<feFlood flood-opacity="0" result="BackgroundImageFix"/>
<feColorMatrix in="SourceAlpha" type="matrix" values="0 0 0 0 0 0 0 0 0 0 0 0 0 0 0 0 0 0 127 0" result="hardAlpha"/>
<feOffset/>
<feGaussianBlur stdDeviation="19.5"/>
<feColorMatrix type="matrix" values="0 0 0 0 1 0 0 0 0 0.0458333 0 0 0 0 0.0458333 0 0 0 0.78 0"/>
<feBlend mode="normal" in2="BackgroundImageFix" result="effect1_dropShadow_1_87"/>
<feBlend mode="normal" in="SourceGraphic" in2="effect1_dropShadow_1_87" result="shape"/>
</filter>
</defs>
</svg>
